<?xml version="1.0" encoding="UTF-8" standalone="no"?><svg xmlns="http://www.w3.org/2000/svg" xmlns:xlink="http://www.w3.org/1999/xlink" contentScriptType="application/ecmascript" contentStyleType="text/css" height="258px" preserveAspectRatio="none" style="width:411px;height:258px;background:#2F4F4F;" version="1.1" viewBox="0 0 411 258" width="411px" zoomAndPan="magnify"><defs><filter height="300%" id="f4pn13wlwih31" width="300%" x="-1" y="-1"><feGaussianBlur result="blurOut" stdDeviation="2.0"/><feColorMatrix in="blurOut" result="blurOut2" type="matrix" values="0 0 0 0 0 0 0 0 0 0 0 0 0 0 0 0 0 0 .4 0"/><feOffset dx="4.0" dy="4.0" in="blurOut2" result="blurOut3"/><feBlend in="SourceGraphic" in2="blurOut3" mode="normal"/></filter></defs><g><!--class Fleet--><rect fill="#708090" filter="url(#f4pn13wlwih31)" height="32" id="Fleet" style="stroke: #000000; stroke-width: 1.5;" width="63" x="168.5" y="215"/><ellipse cx="183.5" cy="231" fill="#5F9EA0" rx="11" ry="11" style="stroke: #000000; stroke-width: 1.0;"/><path d="M186.4688,236.6406 Q185.8906,236.9375 185.25,237.0781 Q184.6094,237.2344 183.9063,237.2344 Q181.4063,237.2344 180.0781,235.5938 Q178.7656,233.9375 178.7656,230.8125 Q178.7656,227.6875 180.0781,226.0313 Q181.4063,224.375 183.9063,224.375 Q184.6094,224.375 185.25,224.5313 Q185.9063,224.6875 186.4688,224.9844 L186.4688,227.7031 Q185.8438,227.125 185.25,226.8594 Q184.6563,226.5781 184.0313,226.5781 Q182.6875,226.5781 182,227.6563 Q181.3125,228.7188 181.3125,230.8125 Q181.3125,232.9063 182,233.9844 Q182.6875,235.0469 184.0313,235.0469 Q184.6563,235.0469 185.25,234.7813 Q185.8438,234.5 186.4688,233.9219 L186.4688,236.6406 Z "/><text fill="#000000" font-family="sans-serif" font-size="12" lengthAdjust="spacingAndGlyphs" textLength="31" x="197.5" y="235.1543">Fleet</text><!--class StarFighter--><rect fill="#708090" filter="url(#f4pn13wlwih31)" height="86.4141" id="StarFighter" style="stroke: #000000; stroke-width: 1.5;" width="102" x="6" y="8"/><ellipse cx="21" cy="24" fill="#5F9EA0" rx="11" ry="11" style="stroke: #000000; stroke-width: 1.0;"/><path d="M23.9688,29.6406 Q23.3906,29.9375 22.75,30.0781 Q22.1094,30.2344 21.4063,30.2344 Q18.9063,30.2344 17.5781,28.5938 Q16.2656,26.9375 16.2656,23.8125 Q16.2656,20.6875 17.5781,19.0313 Q18.9063,17.375 21.4063,17.375 Q22.1094,17.375 22.75,17.5313 Q23.4063,17.6875 23.9688,17.9844 L23.9688,20.7031 Q23.3438,20.125 22.75,19.8594 Q22.1563,19.5781 21.5313,19.5781 Q20.1875,19.5781 19.5,20.6563 Q18.8125,21.7188 18.8125,23.8125 Q18.8125,25.9063 19.5,26.9844 Q20.1875,28.0469 21.5313,28.0469 Q22.1563,28.0469 22.75,27.7813 Q23.3438,27.5 23.9688,26.9219 L23.9688,29.6406 Z "/><text fill="#000000" font-family="sans-serif" font-size="12" lengthAdjust="spacingAndGlyphs" textLength="70" x="35" y="28.1543">StarFighter</text><line style="stroke: #000000; stroke-width: 1.5;" x1="7" x2="107" y1="40" y2="40"/><line style="stroke: #000000; stroke-width: 1.5;" x1="7" x2="107" y1="48" y2="48"/><text fill="#000000" font-family="sans-serif" font-size="11" lengthAdjust="spacingAndGlyphs" textLength="39" x="12" y="62.2104">move()</text><text fill="#000000" font-family="sans-serif" font-size="11" lengthAdjust="spacingAndGlyphs" textLength="36" x="12" y="75.0151">draw()</text><text fill="#000000" font-family="sans-serif" font-size="11" lengthAdjust="spacingAndGlyphs" textLength="66" x="12" y="87.8198">fireMissile()</text><!--class CargoShuttle--><rect fill="#708090" filter="url(#f4pn13wlwih31)" height="86.4141" id="CargoShuttle" style="stroke: #000000; stroke-width: 1.5;" width="114" x="143" y="8"/><ellipse cx="158" cy="24" fill="#5F9EA0" rx="11" ry="11" style="stroke: #000000; stroke-width: 1.0;"/><path d="M160.9688,29.6406 Q160.3906,29.9375 159.75,30.0781 Q159.1094,30.2344 158.4063,30.2344 Q155.9063,30.2344 154.5781,28.5938 Q153.2656,26.9375 153.2656,23.8125 Q153.2656,20.6875 154.5781,19.0313 Q155.9063,17.375 158.4063,17.375 Q159.1094,17.375 159.75,17.5313 Q160.4063,17.6875 160.9688,17.9844 L160.9688,20.7031 Q160.3438,20.125 159.75,19.8594 Q159.1563,19.5781 158.5313,19.5781 Q157.1875,19.5781 156.5,20.6563 Q155.8125,21.7188 155.8125,23.8125 Q155.8125,25.9063 156.5,26.9844 Q157.1875,28.0469 158.5313,28.0469 Q159.1563,28.0469 159.75,27.7813 Q160.3438,27.5 160.9688,26.9219 L160.9688,29.6406 Z "/><text fill="#000000" font-family="sans-serif" font-size="12" lengthAdjust="spacingAndGlyphs" textLength="82" x="172" y="28.1543">CargoShuttle</text><line style="stroke: #000000; stroke-width: 1.5;" x1="144" x2="256" y1="40" y2="40"/><line style="stroke: #000000; stroke-width: 1.5;" x1="144" x2="256" y1="48" y2="48"/><text fill="#000000" font-family="sans-serif" font-size="11" lengthAdjust="spacingAndGlyphs" textLength="39" x="149" y="62.2104">move()</text><text fill="#000000" font-family="sans-serif" font-size="11" lengthAdjust="spacingAndGlyphs" textLength="36" x="149" y="75.0151">draw()</text><text fill="#000000" font-family="sans-serif" font-size="11" lengthAdjust="spacingAndGlyphs" textLength="68" x="149" y="87.8198">dropCargo()</text><!--class WarpCruiser--><rect fill="#708090" filter="url(#f4pn13wlwih31)" height="73.6094" id="WarpCruiser" style="stroke: #000000; stroke-width: 1.5;" width="108" x="292" y="14"/><ellipse cx="307" cy="30" fill="#5F9EA0" rx="11" ry="11" style="stroke: #000000; stroke-width: 1.0;"/><path d="M309.9688,35.6406 Q309.3906,35.9375 308.75,36.0781 Q308.1094,36.2344 307.4063,36.2344 Q304.9063,36.2344 303.5781,34.5938 Q302.2656,32.9375 302.2656,29.8125 Q302.2656,26.6875 303.5781,25.0313 Q304.9063,23.375 307.4063,23.375 Q308.1094,23.375 308.75,23.5313 Q309.4063,23.6875 309.9688,23.9844 L309.9688,26.7031 Q309.3438,26.125 308.75,25.8594 Q308.1563,25.5781 307.5313,25.5781 Q306.1875,25.5781 305.5,26.6563 Q304.8125,27.7188 304.8125,29.8125 Q304.8125,31.9063 305.5,32.9844 Q306.1875,34.0469 307.5313,34.0469 Q308.1563,34.0469 308.75,33.7813 Q309.3438,33.5 309.9688,32.9219 L309.9688,35.6406 Z "/><text fill="#000000" font-family="sans-serif" font-size="12" lengthAdjust="spacingAndGlyphs" textLength="76" x="321" y="34.1543">WarpCruiser</text><line style="stroke: #000000; stroke-width: 1.5;" x1="293" x2="399" y1="46" y2="46"/><line style="stroke: #000000; stroke-width: 1.5;" x1="293" x2="399" y1="54" y2="54"/><text fill="#000000" font-family="sans-serif" font-size="11" lengthAdjust="spacingAndGlyphs" textLength="39" x="298" y="68.2104">move()</text><text fill="#000000" font-family="sans-serif" font-size="11" lengthAdjust="spacingAndGlyphs" textLength="36" x="298" y="81.0151">draw()</text><!--link StarFighter to Fleet--><path d="M91.2521,94.1145 C118.5075,128.4221 155.7816,175.3405 178.8523,204.3806 " fill="none" id="StarFighter-Fleet" style="stroke: #FFA500; stroke-width: 1.0;"/><polygon fill="#2F4F4F" points="186.9485,214.5715,186.3482,207.3854,179.484,205.1757,180.0843,212.3618,186.9485,214.5715" style="stroke: #FFA500; stroke-width: 1.0;"/><text fill="#000000" font-family="sans-serif" font-size="13" lengthAdjust="spacingAndGlyphs" textLength="23" x="72.0204" y="114.5411">0..*</text><text fill="#000000" font-family="sans-serif" font-size="13" lengthAdjust="spacingAndGlyphs" textLength="8" x="173.5133" y="204.0324">1</text><!--link CargoShuttle to Fleet--><path d="M200,94.1145 C200,127.213 200,172.0491 200,201.245 " fill="none" id="CargoShuttle-Fleet" style="stroke: #FFA500; stroke-width: 1.0;"/><polygon fill="#2F4F4F" points="200,214.5715,204,208.5715,200,202.5715,196,208.5715,200,214.5715" style="stroke: #FFA500; stroke-width: 1.0;"/><text fill="#000000" font-family="sans-serif" font-size="13" lengthAdjust="spacingAndGlyphs" textLength="23" x="175.0953" y="114.5411">0..*</text><text fill="#000000" font-family="sans-serif" font-size="13" lengthAdjust="spacingAndGlyphs" textLength="8" x="190.725" y="204.0324">1</text><!--link WarpCruiser to Fleet--><path d="M315.7487,88.2961 C287.6298,122.9632 246.4453,173.7386 221.5345,204.4506 " fill="none" id="WarpCruiser-Fleet" style="stroke: #FFA500; stroke-width: 1.0;"/><polygon fill="#2F4F4F" points="213.1474,214.7908,220.0336,212.6507,220.7067,205.4711,213.8205,207.6112,213.1474,214.7908" style="stroke: #FFA500; stroke-width: 1.0;"/><text fill="#000000" font-family="sans-serif" font-size="13" lengthAdjust="spacingAndGlyphs" textLength="23" x="286.0946" y="107.5441">0..*</text><text fill="#000000" font-family="sans-serif" font-size="13" lengthAdjust="spacingAndGlyphs" textLength="8" x="208.1775" y="204.026">1</text><!--
@startuml diagrams/Aggregation
skinparam class {
    BackgroundColor SlateGrey
    ArrowColor Orange
    BorderColor Black
}
skinparam stereotypeCBackgroundColor CadetBlue
skinparam backgroundColor DarkSlateGrey

class Fleet {

}
hide Fleet method
hide Fleet fields

class StarFighter {
    move()
    draw()
    fireMissile()
}

class CargoShuttle {
    move()
    draw()
    dropCargo()
}

class WarpCruiser {
    move()
    draw()
}

StarFighter "0..*" - - -o "1" Fleet
CargoShuttle "0..*" - - -o "1" Fleet
WarpCruiser "0..*" - - -o "1" Fleet


@enduml

PlantUML version 1.2017.15(Mon Jul 03 18:45:34 CEST 2017)
(GPL source distribution)
Java Runtime: OpenJDK Runtime Environment
JVM: OpenJDK 64-Bit Server VM
Java Version: 11.0.8+10-post-Ubuntu-0ubuntu118.04.1
Operating System: Linux
OS Version: 4.15.0-117-generic
Default Encoding: UTF-8
Language: en
Country: US
--></g></svg>