<?xml version="1.0" encoding="UTF-8" standalone="no"?><svg xmlns="http://www.w3.org/2000/svg" xmlns:xlink="http://www.w3.org/1999/xlink" contentScriptType="application/ecmascript" contentStyleType="text/css" height="341px" preserveAspectRatio="none" style="width:563px;height:341px;background:#2F4F4F;" version="1.1" viewBox="0 0 563 341" width="563px" zoomAndPan="magnify"><defs><filter height="300%" id="f1h790vidwpr2u" width="300%" x="-1" y="-1"><feGaussianBlur result="blurOut" stdDeviation="2.0"/><feColorMatrix in="blurOut" result="blurOut2" type="matrix" values="0 0 0 0 0 0 0 0 0 0 0 0 0 0 0 0 0 0 .4 0"/><feOffset dx="4.0" dy="4.0" in="blurOut2" result="blurOut3"/><feBlend in="SourceGraphic" in2="blurOut3" mode="normal"/></filter></defs><g><!--class Admin--><rect fill="#708090" filter="url(#f1h790vidwpr2u)" height="99.2188" id="Admin" style="stroke: #000000; stroke-width: 1.5;" width="132" x="36" y="27.5"/><ellipse cx="78.9" cy="43.5" fill="#5F9EA0" rx="11" ry="11" style="stroke: #000000; stroke-width: 1.0;"/><path d="M81.8688,49.1406 Q81.2906,49.4375 80.65,49.5781 Q80.0094,49.7344 79.3063,49.7344 Q76.8063,49.7344 75.4781,48.0938 Q74.1656,46.4375 74.1656,43.3125 Q74.1656,40.1875 75.4781,38.5313 Q76.8063,36.875 79.3063,36.875 Q80.0094,36.875 80.65,37.0313 Q81.3063,37.1875 81.8688,37.4844 L81.8688,40.2031 Q81.2438,39.625 80.65,39.3594 Q80.0563,39.0781 79.4313,39.0781 Q78.0875,39.0781 77.4,40.1563 Q76.7125,41.2188 76.7125,43.3125 Q76.7125,45.4063 77.4,46.4844 Q78.0875,47.5469 79.4313,47.5469 Q80.0563,47.5469 80.65,47.2813 Q81.2438,47 81.8688,46.4219 L81.8688,49.1406 Z "/><text fill="#000000" font-family="sans-serif" font-size="12" lengthAdjust="spacingAndGlyphs" textLength="38" x="99.1" y="47.6543">Admin</text><line style="stroke: #000000; stroke-width: 1.5;" x1="37" x2="167" y1="59.5" y2="59.5"/><rect fill="none" height="6" style="stroke: #C82930; stroke-width: 1.0;" width="6" x="44" y="68.4023"/><text fill="#000000" font-family="sans-serif" font-size="11" lengthAdjust="spacingAndGlyphs" textLength="58" x="56" y="73.7104">id: integer</text><line style="stroke: #000000; stroke-width: 1.5;" x1="37" x2="167" y1="80.3047" y2="80.3047"/><ellipse cx="47" cy="92.207" fill="#84BE84" rx="3" ry="3" style="stroke: #038048; stroke-width: 1.0;"/><text fill="#000000" font-family="sans-serif" font-size="11" lengthAdjust="spacingAndGlyphs" textLength="85" x="56" y="94.5151">getID(): integer</text><ellipse cx="47" cy="105.0117" fill="#84BE84" rx="3" ry="3" style="stroke: #038048; stroke-width: 1.0;"/><text fill="#000000" font-family="sans-serif" font-size="11" lengthAdjust="spacingAndGlyphs" textLength="106" x="56" y="107.3198">createUser(): User</text><ellipse cx="47" cy="117.8164" fill="#84BE84" rx="3" ry="3" style="stroke: #038048; stroke-width: 1.0;"/><text fill="#000000" font-family="sans-serif" font-size="11" lengthAdjust="spacingAndGlyphs" textLength="91" x="56" y="120.1245">manageQueue()</text><!--class Song--><rect fill="#708090" filter="url(#f1h790vidwpr2u)" height="137.6328" id="Song" style="stroke: #000000; stroke-width: 1.5;" width="128" x="203" y="8"/><ellipse cx="246.8" cy="24" fill="#5F9EA0" rx="11" ry="11" style="stroke: #000000; stroke-width: 1.0;"/><path d="M249.7688,29.6406 Q249.1906,29.9375 248.55,30.0781 Q247.9094,30.2344 247.2063,30.2344 Q244.7063,30.2344 243.3781,28.5938 Q242.0656,26.9375 242.0656,23.8125 Q242.0656,20.6875 243.3781,19.0313 Q244.7063,17.375 247.2063,17.375 Q247.9094,17.375 248.55,17.5313 Q249.2063,17.6875 249.7688,17.9844 L249.7688,20.7031 Q249.1438,20.125 248.55,19.8594 Q247.9563,19.5781 247.3313,19.5781 Q245.9875,19.5781 245.3,20.6563 Q244.6125,21.7188 244.6125,23.8125 Q244.6125,25.9063 245.3,26.9844 Q245.9875,28.0469 247.3313,28.0469 Q247.9563,28.0469 248.55,27.7813 Q249.1438,27.5 249.7688,26.9219 L249.7688,29.6406 Z "/><text fill="#000000" font-family="sans-serif" font-size="12" lengthAdjust="spacingAndGlyphs" textLength="32" x="267.2" y="28.1543">Song</text><line style="stroke: #000000; stroke-width: 1.5;" x1="204" x2="330" y1="40" y2="40"/><rect fill="none" height="6" style="stroke: #C82930; stroke-width: 1.0;" width="6" x="211" y="48.9023"/><text fill="#000000" font-family="sans-serif" font-size="11" lengthAdjust="spacingAndGlyphs" textLength="62" x="223" y="54.2104">title: string</text><rect fill="none" height="6" style="stroke: #C82930; stroke-width: 1.0;" width="6" x="211" y="61.707"/><text fill="#000000" font-family="sans-serif" font-size="11" lengthAdjust="spacingAndGlyphs" textLength="71" x="223" y="67.0151">artist: string</text><rect fill="none" height="6" style="stroke: #C82930; stroke-width: 1.0;" width="6" x="211" y="74.5117"/><text fill="#000000" font-family="sans-serif" font-size="11" lengthAdjust="spacingAndGlyphs" textLength="76" x="223" y="79.8198">album: string</text><line style="stroke: #000000; stroke-width: 1.5;" x1="204" x2="330" y1="86.4141" y2="86.4141"/><ellipse cx="214" cy="98.3164" fill="#84BE84" rx="3" ry="3" style="stroke: #038048; stroke-width: 1.0;"/><text fill="#000000" font-family="sans-serif" font-size="11" lengthAdjust="spacingAndGlyphs" textLength="100" x="223" y="100.6245">getName(): string</text><ellipse cx="214" cy="111.1211" fill="#84BE84" rx="3" ry="3" style="stroke: #038048; stroke-width: 1.0;"/><text fill="#000000" font-family="sans-serif" font-size="11" lengthAdjust="spacingAndGlyphs" textLength="97" x="223" y="113.4292">getArtist(): string</text><ellipse cx="214" cy="123.9258" fill="#84BE84" rx="3" ry="3" style="stroke: #038048; stroke-width: 1.0;"/><text fill="#000000" font-family="sans-serif" font-size="11" lengthAdjust="spacingAndGlyphs" textLength="102" x="223" y="126.2339">getAlbum(): string</text><ellipse cx="214" cy="136.7305" fill="#84BE84" rx="3" ry="3" style="stroke: #038048; stroke-width: 1.0;"/><text fill="#000000" font-family="sans-serif" font-size="11" lengthAdjust="spacingAndGlyphs" textLength="31" x="223" y="139.0386">play()</text><!--class Album--><rect fill="#708090" filter="url(#f1h790vidwpr2u)" height="112.0234" id="Album" style="stroke: #000000; stroke-width: 1.5;" width="186" x="366" y="21"/><ellipse cx="435.75" cy="37" fill="#5F9EA0" rx="11" ry="11" style="stroke: #000000; stroke-width: 1.0;"/><path d="M438.7188,42.6406 Q438.1406,42.9375 437.5,43.0781 Q436.8594,43.2344 436.1563,43.2344 Q433.6563,43.2344 432.3281,41.5938 Q431.0156,39.9375 431.0156,36.8125 Q431.0156,33.6875 432.3281,32.0313 Q433.6563,30.375 436.1563,30.375 Q436.8594,30.375 437.5,30.5313 Q438.1563,30.6875 438.7188,30.9844 L438.7188,33.7031 Q438.0938,33.125 437.5,32.8594 Q436.9063,32.5781 436.2813,32.5781 Q434.9375,32.5781 434.25,33.6563 Q433.5625,34.7188 433.5625,36.8125 Q433.5625,38.9063 434.25,39.9844 Q434.9375,41.0469 436.2813,41.0469 Q436.9063,41.0469 437.5,40.7813 Q438.0938,40.5 438.7188,39.9219 L438.7188,42.6406 Z "/><text fill="#000000" font-family="sans-serif" font-size="12" lengthAdjust="spacingAndGlyphs" textLength="38" x="456.25" y="41.1543">Album</text><line style="stroke: #000000; stroke-width: 1.5;" x1="367" x2="551" y1="53" y2="53"/><rect fill="none" height="6" style="stroke: #C82930; stroke-width: 1.0;" width="6" x="374" y="61.9023"/><text fill="#000000" font-family="sans-serif" font-size="11" lengthAdjust="spacingAndGlyphs" textLength="73" x="386" y="67.2104">name: string</text><rect fill="none" height="6" style="stroke: #C82930; stroke-width: 1.0;" width="6" x="374" y="74.707"/><text fill="#000000" font-family="sans-serif" font-size="11" lengthAdjust="spacingAndGlyphs" textLength="105" x="386" y="80.0151">songs: Song[1...*]</text><line style="stroke: #000000; stroke-width: 1.5;" x1="367" x2="551" y1="86.6094" y2="86.6094"/><ellipse cx="377" cy="98.5117" fill="#84BE84" rx="3" ry="3" style="stroke: #038048; stroke-width: 1.0;"/><text fill="#000000" font-family="sans-serif" font-size="11" lengthAdjust="spacingAndGlyphs" textLength="100" x="386" y="100.8198">getName(): string</text><ellipse cx="377" cy="111.3164" fill="#84BE84" rx="3" ry="3" style="stroke: #038048; stroke-width: 1.0;"/><text fill="#000000" font-family="sans-serif" font-size="11" lengthAdjust="spacingAndGlyphs" textLength="160" x="386" y="113.6245">getSongTitles(): string[1...*]</text><ellipse cx="377" cy="124.1211" fill="#84BE84" rx="3" ry="3" style="stroke: #038048; stroke-width: 1.0;"/><text fill="#000000" font-family="sans-serif" font-size="11" lengthAdjust="spacingAndGlyphs" textLength="125" x="386" y="126.4292">getSong(string): Song</text><!--class Library--><rect fill="#708090" filter="url(#f1h790vidwpr2u)" height="86.4141" id="Library" style="stroke: #000000; stroke-width: 1.5;" width="192" x="6" y="225.5"/><ellipse cx="77.25" cy="241.5" fill="#5F9EA0" rx="11" ry="11" style="stroke: #000000; stroke-width: 1.0;"/><path d="M80.2188,247.1406 Q79.6406,247.4375 79,247.5781 Q78.3594,247.7344 77.6563,247.7344 Q75.1563,247.7344 73.8281,246.0938 Q72.5156,244.4375 72.5156,241.3125 Q72.5156,238.1875 73.8281,236.5313 Q75.1563,234.875 77.6563,234.875 Q78.3594,234.875 79,235.0313 Q79.6563,235.1875 80.2188,235.4844 L80.2188,238.2031 Q79.5938,237.625 79,237.3594 Q78.4063,237.0781 77.7813,237.0781 Q76.4375,237.0781 75.75,238.1563 Q75.0625,239.2188 75.0625,241.3125 Q75.0625,243.4063 75.75,244.4844 Q76.4375,245.5469 77.7813,245.5469 Q78.4063,245.5469 79,245.2813 Q79.5938,245 80.2188,244.4219 L80.2188,247.1406 Z "/><text fill="#000000" font-family="sans-serif" font-size="12" lengthAdjust="spacingAndGlyphs" textLength="41" x="97.75" y="245.6543">Library</text><line style="stroke: #000000; stroke-width: 1.5;" x1="7" x2="197" y1="257.5" y2="257.5"/><rect fill="none" height="6" style="stroke: #C82930; stroke-width: 1.0;" width="6" x="14" y="266.4023"/><text fill="#000000" font-family="sans-serif" font-size="11" lengthAdjust="spacingAndGlyphs" textLength="118" x="26" y="271.7104">albums: Album[1...*]</text><line style="stroke: #000000; stroke-width: 1.5;" x1="7" x2="197" y1="278.3047" y2="278.3047"/><ellipse cx="17" cy="290.207" fill="#84BE84" rx="3" ry="3" style="stroke: #038048; stroke-width: 1.0;"/><text fill="#000000" font-family="sans-serif" font-size="11" lengthAdjust="spacingAndGlyphs" textLength="166" x="26" y="292.5151">getAlbumTitles(): string[1...*]</text><ellipse cx="17" cy="303.0117" fill="#84BE84" rx="3" ry="3" style="stroke: #038048; stroke-width: 1.0;"/><text fill="#000000" font-family="sans-serif" font-size="11" lengthAdjust="spacingAndGlyphs" textLength="137" x="26" y="305.3198">getAlbum(string): Album</text><!--class Queue--><rect fill="#708090" filter="url(#f1h790vidwpr2u)" height="124.8281" id="Queue" style="stroke: #000000; stroke-width: 1.5;" width="145" x="233.5" y="206"/><ellipse cx="281.25" cy="222" fill="#5F9EA0" rx="11" ry="11" style="stroke: #000000; stroke-width: 1.0;"/><path d="M284.2188,227.6406 Q283.6406,227.9375 283,228.0781 Q282.3594,228.2344 281.6563,228.2344 Q279.1563,228.2344 277.8281,226.5938 Q276.5156,224.9375 276.5156,221.8125 Q276.5156,218.6875 277.8281,217.0313 Q279.1563,215.375 281.6563,215.375 Q282.3594,215.375 283,215.5313 Q283.6563,215.6875 284.2188,215.9844 L284.2188,218.7031 Q283.5938,218.125 283,217.8594 Q282.4063,217.5781 281.7813,217.5781 Q280.4375,217.5781 279.75,218.6563 Q279.0625,219.7188 279.0625,221.8125 Q279.0625,223.9063 279.75,224.9844 Q280.4375,226.0469 281.7813,226.0469 Q282.4063,226.0469 283,225.7813 Q283.5938,225.5 284.2188,224.9219 L284.2188,227.6406 Z "/><text fill="#000000" font-family="sans-serif" font-size="12" lengthAdjust="spacingAndGlyphs" textLength="41" x="301.75" y="226.1543">Queue</text><line style="stroke: #000000; stroke-width: 1.5;" x1="234.5" x2="377.5" y1="238" y2="238"/><rect fill="none" height="6" style="stroke: #C82930; stroke-width: 1.0;" width="6" x="241.5" y="246.9023"/><text fill="#000000" font-family="sans-serif" font-size="11" lengthAdjust="spacingAndGlyphs" textLength="78" x="253.5" y="252.2104">current: Song</text><rect fill="none" height="6" style="stroke: #C82930; stroke-width: 1.0;" width="6" x="241.5" y="259.707"/><text fill="#000000" font-family="sans-serif" font-size="11" lengthAdjust="spacingAndGlyphs" textLength="119" x="253.5" y="265.0151">next: Song linked list</text><rect fill="none" height="6" style="stroke: #C82930; stroke-width: 1.0;" width="6" x="241.5" y="272.5117"/><text fill="#000000" font-family="sans-serif" font-size="11" lengthAdjust="spacingAndGlyphs" textLength="104" x="253.5" y="277.8198">songsByUser: dict</text><line style="stroke: #000000; stroke-width: 1.5;" x1="234.5" x2="377.5" y1="284.4141" y2="284.4141"/><ellipse cx="244.5" cy="296.3164" fill="#84BE84" rx="3" ry="3" style="stroke: #038048; stroke-width: 1.0;"/><text fill="#000000" font-family="sans-serif" font-size="11" lengthAdjust="spacingAndGlyphs" textLength="106" x="253.5" y="298.6245">add(Song, integer)</text><ellipse cx="244.5" cy="309.1211" fill="#84BE84" rx="3" ry="3" style="stroke: #038048; stroke-width: 1.0;"/><text fill="#000000" font-family="sans-serif" font-size="11" lengthAdjust="spacingAndGlyphs" textLength="80" x="253.5" y="311.4292">remove(Song)</text><rect fill="#F24D5C" height="6" style="stroke: #C82930; stroke-width: 1.0;" width="6" x="241.5" y="318.9258"/><text fill="#000000" font-family="sans-serif" font-size="11" lengthAdjust="spacingAndGlyphs" textLength="117" x="253.5" y="324.2339">getNextSong(): Song</text><!--class User--><rect fill="#708090" filter="url(#f1h790vidwpr2u)" height="73.6094" id="User" style="stroke: #000000; stroke-width: 1.5;" width="111" x="413.5" y="231.5"/><ellipse cx="451" cy="247.5" fill="#5F9EA0" rx="11" ry="11" style="stroke: #000000; stroke-width: 1.0;"/><path d="M453.9688,253.1406 Q453.3906,253.4375 452.75,253.5781 Q452.1094,253.7344 451.4063,253.7344 Q448.9063,253.7344 447.5781,252.0938 Q446.2656,250.4375 446.2656,247.3125 Q446.2656,244.1875 447.5781,242.5313 Q448.9063,240.875 451.4063,240.875 Q452.1094,240.875 452.75,241.0313 Q453.4063,241.1875 453.9688,241.4844 L453.9688,244.2031 Q453.3438,243.625 452.75,243.3594 Q452.1563,243.0781 451.5313,243.0781 Q450.1875,243.0781 449.5,244.1563 Q448.8125,245.2188 448.8125,247.3125 Q448.8125,249.4063 449.5,250.4844 Q450.1875,251.5469 451.5313,251.5469 Q452.1563,251.5469 452.75,251.2813 Q453.3438,251 453.9688,250.4219 L453.9688,253.1406 Z "/><text fill="#000000" font-family="sans-serif" font-size="12" lengthAdjust="spacingAndGlyphs" textLength="29" x="470" y="251.6543">User</text><line style="stroke: #000000; stroke-width: 1.5;" x1="414.5" x2="523.5" y1="263.5" y2="263.5"/><rect fill="none" height="6" style="stroke: #C82930; stroke-width: 1.0;" width="6" x="421.5" y="272.4023"/><text fill="#000000" font-family="sans-serif" font-size="11" lengthAdjust="spacingAndGlyphs" textLength="58" x="433.5" y="277.7104">id: integer</text><line style="stroke: #000000; stroke-width: 1.5;" x1="414.5" x2="523.5" y1="284.3047" y2="284.3047"/><ellipse cx="424.5" cy="296.207" fill="#84BE84" rx="3" ry="3" style="stroke: #038048; stroke-width: 1.0;"/><text fill="#000000" font-family="sans-serif" font-size="11" lengthAdjust="spacingAndGlyphs" textLength="85" x="433.5" y="298.5151">getID(): integer</text><!--link Admin to Song--><!--link Song to Album--><!--link Admin to Library--><!--link Library to Queue--><!--link Queue to User--><!--
@startuml ConvertionIntoCode
skinparam class {
    BackgroundColor SlateGrey
    ArrowColor Orange
    BorderColor Black
}
skinparam stereotypeCBackgroundColor CadetBlue
skinparam backgroundColor DarkSlateGrey


class Admin {
    - id: integer
    + getID(): integer
    + createUser(): User
    + manageQueue()
}

class Song {
    - title: string
    - artist: string
    - album: string
    + getName(): string
    + getArtist(): string
    + getAlbum(): string
    + play()
}

class Album {
    - name: string
    - songs: Song[1...*]
    + getName(): string
    + getSongTitles(): string[1...*]
    + getSong(string): Song
}

class Library {
    - albums: Album[1...*]
    + getAlbumTitles(): string[1...*]
    + getAlbum(string): Album
}

class Queue {
    - current: Song
    - next: Song linked list
    - songsByUser: dict
    + add(Song, integer)
    + remove(Song)
    - getNextSong(): Song
}

class User {
    - id: integer
    + getID(): integer
}

@enduml

PlantUML version 1.2017.15(Mon Jul 03 18:45:34 CEST 2017)
(GPL source distribution)
Java Runtime: OpenJDK Runtime Environment
JVM: OpenJDK 64-Bit Server VM
Java Version: 11.0.8+10-post-Ubuntu-0ubuntu118.04.1
Operating System: Linux
OS Version: 4.15.0-117-generic
Default Encoding: UTF-8
Language: en
Country: US
--></g></svg>