<?xml version="1.0" encoding="UTF-8" standalone="no"?><svg xmlns="http://www.w3.org/2000/svg" xmlns:xlink="http://www.w3.org/1999/xlink" contentScriptType="application/ecmascript" contentStyleType="text/css" height="169px" preserveAspectRatio="none" style="width:393px;height:169px;background:#2F4F4F;" version="1.1" viewBox="0 0 393 169" width="393px" zoomAndPan="magnify"><defs><filter height="300%" id="f1s578fspni3ny" width="300%" x="-1" y="-1"><feGaussianBlur result="blurOut" stdDeviation="2.0"/><feColorMatrix in="blurOut" result="blurOut2" type="matrix" values="0 0 0 0 0 0 0 0 0 0 0 0 0 0 0 0 0 0 .4 0"/><feOffset dx="4.0" dy="4.0" in="blurOut2" result="blurOut3"/><feBlend in="SourceGraphic" in2="blurOut3" mode="normal"/></filter></defs><g><!--class Spaceship--><rect fill="#708090" filter="url(#f1s578fspni3ny)" height="150.4375" id="Spaceship" style="stroke: #000000; stroke-width: 1.5;" width="224" x="6" y="8"/><ellipse cx="81.25" cy="24" fill="#5F9EA0" rx="11" ry="11" style="stroke: #000000; stroke-width: 1.0;"/><path d="M84.2188,29.6406 Q83.6406,29.9375 83,30.0781 Q82.3594,30.2344 81.6563,30.2344 Q79.1563,30.2344 77.8281,28.5938 Q76.5156,26.9375 76.5156,23.8125 Q76.5156,20.6875 77.8281,19.0313 Q79.1563,17.375 81.6563,17.375 Q82.3594,17.375 83,17.5313 Q83.6563,17.6875 84.2188,17.9844 L84.2188,20.7031 Q83.5938,20.125 83,19.8594 Q82.4063,19.5781 81.7813,19.5781 Q80.4375,19.5781 79.75,20.6563 Q79.0625,21.7188 79.0625,23.8125 Q79.0625,25.9063 79.75,26.9844 Q80.4375,28.0469 81.7813,28.0469 Q82.4063,28.0469 83,27.7813 Q83.5938,27.5 84.2188,26.9219 L84.2188,29.6406 Z "/><text fill="#000000" font-family="sans-serif" font-size="12" lengthAdjust="spacingAndGlyphs" textLength="65" x="101.75" y="28.1543">Spaceship</text><line style="stroke: #000000; stroke-width: 1.5;" x1="7" x2="229" y1="40" y2="40"/><rect fill="none" height="6" style="stroke: #C82930; stroke-width: 1.0;" width="6" x="14" y="48.9023"/><text fill="#000000" font-family="sans-serif" font-size="11" lengthAdjust="spacingAndGlyphs" textLength="198" x="26" y="54.2104">name: string="the nameless ship"</text><rect fill="none" height="6" style="stroke: #C82930; stroke-width: 1.0;" width="6" x="14" y="61.707"/><text fill="#000000" font-family="sans-serif" font-size="11" lengthAdjust="spacingAndGlyphs" textLength="120" x="26" y="67.0151">shieldActive: boolean</text><rect fill="none" height="6" style="stroke: #C82930; stroke-width: 1.0;" width="6" x="14" y="74.5117"/><text fill="#000000" font-family="sans-serif" font-size="11" lengthAdjust="spacingAndGlyphs" textLength="113" x="26" y="79.8198">position: coordinate</text><line style="stroke: #000000; stroke-width: 1.5;" x1="7" x2="229" y1="86.4141" y2="86.4141"/><ellipse cx="17" cy="98.3164" fill="#84BE84" rx="3" ry="3" style="stroke: #038048; stroke-width: 1.0;"/><text fill="#000000" font-family="sans-serif" font-size="11" lengthAdjust="spacingAndGlyphs" textLength="158" x="26" y="100.6245">getShieldStrength(): integer</text><ellipse cx="17" cy="111.1211" fill="#84BE84" rx="3" ry="3" style="stroke: #038048; stroke-width: 1.0;"/><text fill="#000000" font-family="sans-serif" font-size="11" lengthAdjust="spacingAndGlyphs" textLength="129" x="26" y="113.4292">reduceShields(integer)</text><ellipse cx="17" cy="123.9258" fill="#84BE84" rx="3" ry="3" style="stroke: #038048; stroke-width: 1.0;"/><text fill="#000000" font-family="sans-serif" font-size="11" lengthAdjust="spacingAndGlyphs" textLength="139" x="26" y="126.2339">getPosition(): coordinate</text><ellipse cx="17" cy="136.7305" fill="#84BE84" rx="3" ry="3" style="stroke: #038048; stroke-width: 1.0;"/><text fill="#000000" font-family="sans-serif" font-size="11" lengthAdjust="spacingAndGlyphs" textLength="88" x="26" y="139.0386">move(direction)</text><rect fill="#F24D5C" height="6" style="stroke: #C82930; stroke-width: 1.0;" width="6" x="14" y="146.5352"/><text fill="#000000" font-family="sans-serif" font-size="11" lengthAdjust="spacingAndGlyphs" textLength="131" x="26" y="151.8433">setPosition(coordinate)</text><!--class Legend--><rect fill="#708090" filter="url(#f1s578fspni3ny)" height="99.2188" id="Legend" style="stroke: #000000; stroke-width: 1.5;" width="117" x="265.5" y="33.5"/><ellipse cx="298.05" cy="49.5" fill="#5F9EA0" rx="11" ry="11" style="stroke: #000000; stroke-width: 1.0;"/><path d="M301.0188,55.1406 Q300.4406,55.4375 299.8,55.5781 Q299.1594,55.7344 298.4563,55.7344 Q295.9563,55.7344 294.6281,54.0938 Q293.3156,52.4375 293.3156,49.3125 Q293.3156,46.1875 294.6281,44.5313 Q295.9563,42.875 298.4563,42.875 Q299.1594,42.875 299.8,43.0313 Q300.4563,43.1875 301.0188,43.4844 L301.0188,46.2031 Q300.3938,45.625 299.8,45.3594 Q299.2063,45.0781 298.5813,45.0781 Q297.2375,45.0781 296.55,46.1563 Q295.8625,47.2188 295.8625,49.3125 Q295.8625,51.4063 296.55,52.4844 Q297.2375,53.5469 298.5813,53.5469 Q299.2063,53.5469 299.8,53.2813 Q300.3938,53 301.0188,52.4219 L301.0188,55.1406 Z "/><text fill="#000000" font-family="sans-serif" font-size="12" lengthAdjust="spacingAndGlyphs" textLength="46" x="315.95" y="53.6543">Legend</text><line style="stroke: #000000; stroke-width: 1.5;" x1="266.5" x2="381.5" y1="65.5" y2="65.5"/><rect fill="none" height="6" style="stroke: #C82930; stroke-width: 1.0;" width="6" x="273.5" y="74.4023"/><text fill="#000000" font-family="sans-serif" font-size="11" lengthAdjust="spacingAndGlyphs" textLength="91" x="285.5" y="79.7104">private attribute</text><ellipse cx="276.5" cy="90.207" fill="none" rx="3" ry="3" style="stroke: #038048; stroke-width: 1.0;"/><text fill="#000000" font-family="sans-serif" font-size="11" lengthAdjust="spacingAndGlyphs" textLength="85" x="285.5" y="92.5151">public attribute</text><line style="stroke: #000000; stroke-width: 1.5;" x1="266.5" x2="381.5" y1="99.1094" y2="99.1094"/><rect fill="#F24D5C" height="6" style="stroke: #C82930; stroke-width: 1.0;" width="6" x="273.5" y="108.0117"/><text fill="#000000" font-family="sans-serif" font-size="11" lengthAdjust="spacingAndGlyphs" textLength="86" x="285.5" y="113.3198">private method</text><ellipse cx="276.5" cy="123.8164" fill="#84BE84" rx="3" ry="3" style="stroke: #038048; stroke-width: 1.0;"/><text fill="#000000" font-family="sans-serif" font-size="11" lengthAdjust="spacingAndGlyphs" textLength="80" x="285.5" y="126.1245">public method</text><!--
@startuml CreatingAClassDiagram
skinparam class {
    BackgroundColor SlateGrey
    ArrowColor Orange
    BorderColor Black
}
skinparam stereotypeCBackgroundColor CadetBlue
skinparam backgroundColor DarkSlateGrey
class Spaceship {
    - name: string="the nameless ship"
    - shieldActive: boolean
    - position: coordinate
    + getShieldStrength(): integer
    + reduceShields(integer)
    + getPosition(): coordinate
    + move(direction)
    - setPosition(coordinate)
}

class Legend {
    - private attribute
    + public attribute
    {method} - private method
    {method} + public method
}
@enduml

PlantUML version 1.2017.15(Mon Jul 03 18:45:34 CEST 2017)
(GPL source distribution)
Java Runtime: OpenJDK Runtime Environment
JVM: OpenJDK 64-Bit Server VM
Java Version: 11.0.8+10-post-Ubuntu-0ubuntu118.04.1
Operating System: Linux
OS Version: 4.15.0-117-generic
Default Encoding: UTF-8
Language: en
Country: US
--></g></svg>