<?xml version="1.0" encoding="UTF-8" standalone="no"?><svg xmlns="http://www.w3.org/2000/svg" xmlns:xlink="http://www.w3.org/1999/xlink" contentScriptType="application/ecmascript" contentStyleType="text/css" height="515px" preserveAspectRatio="none" style="width:400px;height:515px;background:#2F4F4F;" version="1.1" viewBox="0 0 400 515" width="400px" zoomAndPan="magnify"><defs><filter height="300%" id="fxv87izgwvmgp" width="300%" x="-1" y="-1"><feGaussianBlur result="blurOut" stdDeviation="2.0"/><feColorMatrix in="blurOut" result="blurOut2" type="matrix" values="0 0 0 0 0 0 0 0 0 0 0 0 0 0 0 0 0 0 .4 0"/><feOffset dx="4.0" dy="4.0" in="blurOut2" result="blurOut3"/><feBlend in="SourceGraphic" in2="blurOut3" mode="normal"/></filter></defs><g><!--class Admin--><rect fill="#708090" filter="url(#fxv87izgwvmgp)" height="48" id="Admin" style="stroke: #000000; stroke-width: 1.5;" width="70" x="292.5" y="8"/><ellipse cx="307.5" cy="24" fill="#5F9EA0" rx="11" ry="11" style="stroke: #000000; stroke-width: 1.0;"/><path d="M310.4688,29.6406 Q309.8906,29.9375 309.25,30.0781 Q308.6094,30.2344 307.9063,30.2344 Q305.4063,30.2344 304.0781,28.5938 Q302.7656,26.9375 302.7656,23.8125 Q302.7656,20.6875 304.0781,19.0313 Q305.4063,17.375 307.9063,17.375 Q308.6094,17.375 309.25,17.5313 Q309.9063,17.6875 310.4688,17.9844 L310.4688,20.7031 Q309.8438,20.125 309.25,19.8594 Q308.6563,19.5781 308.0313,19.5781 Q306.6875,19.5781 306,20.6563 Q305.3125,21.7188 305.3125,23.8125 Q305.3125,25.9063 306,26.9844 Q306.6875,28.0469 308.0313,28.0469 Q308.6563,28.0469 309.25,27.7813 Q309.8438,27.5 310.4688,26.9219 L310.4688,29.6406 Z "/><text fill="#000000" font-family="sans-serif" font-size="12" lengthAdjust="spacingAndGlyphs" textLength="38" x="321.5" y="28.1543">Admin</text><line style="stroke: #000000; stroke-width: 1.5;" x1="293.5" x2="361.5" y1="40" y2="40"/><line style="stroke: #000000; stroke-width: 1.5;" x1="293.5" x2="361.5" y1="48" y2="48"/><!--class Song--><rect fill="#708090" filter="url(#fxv87izgwvmgp)" height="60.8047" id="Song" style="stroke: #000000; stroke-width: 1.5;" width="64" x="152.5" y="444"/><ellipse cx="167.5" cy="460" fill="#5F9EA0" rx="11" ry="11" style="stroke: #000000; stroke-width: 1.0;"/><path d="M170.4688,465.6406 Q169.8906,465.9375 169.25,466.0781 Q168.6094,466.2344 167.9063,466.2344 Q165.4063,466.2344 164.0781,464.5938 Q162.7656,462.9375 162.7656,459.8125 Q162.7656,456.6875 164.0781,455.0313 Q165.4063,453.375 167.9063,453.375 Q168.6094,453.375 169.25,453.5313 Q169.9063,453.6875 170.4688,453.9844 L170.4688,456.7031 Q169.8438,456.125 169.25,455.8594 Q168.6563,455.5781 168.0313,455.5781 Q166.6875,455.5781 166,456.6563 Q165.3125,457.7188 165.3125,459.8125 Q165.3125,461.9063 166,462.9844 Q166.6875,464.0469 168.0313,464.0469 Q168.6563,464.0469 169.25,463.7813 Q169.8438,463.5 170.4688,462.9219 L170.4688,465.6406 Z "/><text fill="#000000" font-family="sans-serif" font-size="12" lengthAdjust="spacingAndGlyphs" textLength="32" x="181.5" y="464.1543">Song</text><line style="stroke: #000000; stroke-width: 1.5;" x1="153.5" x2="215.5" y1="476" y2="476"/><line style="stroke: #000000; stroke-width: 1.5;" x1="153.5" x2="215.5" y1="484" y2="484"/><text fill="#000000" font-family="sans-serif" font-size="11" lengthAdjust="spacingAndGlyphs" textLength="23" x="158.5" y="498.2104">play</text><!--class Album--><rect fill="#708090" filter="url(#fxv87izgwvmgp)" height="73.6094" id="Album" style="stroke: #000000; stroke-width: 1.5;" width="84" x="142.5" y="309"/><ellipse cx="163.8" cy="325" fill="#5F9EA0" rx="11" ry="11" style="stroke: #000000; stroke-width: 1.0;"/><path d="M166.7688,330.6406 Q166.1906,330.9375 165.55,331.0781 Q164.9094,331.2344 164.2063,331.2344 Q161.7063,331.2344 160.3781,329.5938 Q159.0656,327.9375 159.0656,324.8125 Q159.0656,321.6875 160.3781,320.0313 Q161.7063,318.375 164.2063,318.375 Q164.9094,318.375 165.55,318.5313 Q166.2063,318.6875 166.7688,318.9844 L166.7688,321.7031 Q166.1438,321.125 165.55,320.8594 Q164.9563,320.5781 164.3313,320.5781 Q162.9875,320.5781 162.3,321.6563 Q161.6125,322.7188 161.6125,324.8125 Q161.6125,326.9063 162.3,327.9844 Q162.9875,329.0469 164.3313,329.0469 Q164.9563,329.0469 165.55,328.7813 Q166.1438,328.5 166.7688,327.9219 L166.7688,330.6406 Z "/><text fill="#000000" font-family="sans-serif" font-size="12" lengthAdjust="spacingAndGlyphs" textLength="38" x="179.2" y="329.1543">Album</text><line style="stroke: #000000; stroke-width: 1.5;" x1="143.5" x2="225.5" y1="341" y2="341"/><line style="stroke: #000000; stroke-width: 1.5;" x1="143.5" x2="225.5" y1="349" y2="349"/><text fill="#000000" font-family="sans-serif" font-size="11" lengthAdjust="spacingAndGlyphs" textLength="72" x="148.5" y="363.2104">display song</text><text fill="#000000" font-family="sans-serif" font-size="11" lengthAdjust="spacingAndGlyphs" textLength="66" x="148.5" y="376.0151">select song</text><!--class Library--><rect fill="#708090" filter="url(#fxv87izgwvmgp)" height="73.6094" id="Library" style="stroke: #000000; stroke-width: 1.5;" width="91" x="156" y="145.5"/><ellipse cx="179.1" cy="161.5" fill="#5F9EA0" rx="11" ry="11" style="stroke: #000000; stroke-width: 1.0;"/><path d="M182.0688,167.1406 Q181.4906,167.4375 180.85,167.5781 Q180.2094,167.7344 179.5063,167.7344 Q177.0063,167.7344 175.6781,166.0938 Q174.3656,164.4375 174.3656,161.3125 Q174.3656,158.1875 175.6781,156.5313 Q177.0063,154.875 179.5063,154.875 Q180.2094,154.875 180.85,155.0313 Q181.5063,155.1875 182.0688,155.4844 L182.0688,158.2031 Q181.4438,157.625 180.85,157.3594 Q180.2563,157.0781 179.6313,157.0781 Q178.2875,157.0781 177.6,158.1563 Q176.9125,159.2188 176.9125,161.3125 Q176.9125,163.4063 177.6,164.4844 Q178.2875,165.5469 179.6313,165.5469 Q180.2563,165.5469 180.85,165.2813 Q181.4438,165 182.0688,164.4219 L182.0688,167.1406 Z "/><text fill="#000000" font-family="sans-serif" font-size="12" lengthAdjust="spacingAndGlyphs" textLength="41" x="194.9" y="165.6543">Library</text><line style="stroke: #000000; stroke-width: 1.5;" x1="157" x2="246" y1="177.5" y2="177.5"/><line style="stroke: #000000; stroke-width: 1.5;" x1="157" x2="246" y1="185.5" y2="185.5"/><text fill="#000000" font-family="sans-serif" font-size="11" lengthAdjust="spacingAndGlyphs" textLength="79" x="162" y="199.7104">display album</text><text fill="#000000" font-family="sans-serif" font-size="11" lengthAdjust="spacingAndGlyphs" textLength="73" x="162" y="212.5151">select album</text><!--class Queue--><rect fill="#708090" filter="url(#fxv87izgwvmgp)" height="99.2188" id="Queue" style="stroke: #000000; stroke-width: 1.5;" width="90" x="282.5" y="133"/><ellipse cx="305.15" cy="149" fill="#5F9EA0" rx="11" ry="11" style="stroke: #000000; stroke-width: 1.0;"/><path d="M308.1188,154.6406 Q307.5406,154.9375 306.9,155.0781 Q306.2594,155.2344 305.5563,155.2344 Q303.0563,155.2344 301.7281,153.5938 Q300.4156,151.9375 300.4156,148.8125 Q300.4156,145.6875 301.7281,144.0313 Q303.0563,142.375 305.5563,142.375 Q306.2594,142.375 306.9,142.5313 Q307.5563,142.6875 308.1188,142.9844 L308.1188,145.7031 Q307.4938,145.125 306.9,144.8594 Q306.3063,144.5781 305.6813,144.5781 Q304.3375,144.5781 303.65,145.6563 Q302.9625,146.7188 302.9625,148.8125 Q302.9625,150.9063 303.65,151.9844 Q304.3375,153.0469 305.6813,153.0469 Q306.3063,153.0469 306.9,152.7813 Q307.4938,152.5 308.1188,151.9219 L308.1188,154.6406 Z "/><text fill="#000000" font-family="sans-serif" font-size="12" lengthAdjust="spacingAndGlyphs" textLength="41" x="320.85" y="153.1543">Queue</text><line style="stroke: #000000; stroke-width: 1.5;" x1="283.5" x2="371.5" y1="165" y2="165"/><line style="stroke: #000000; stroke-width: 1.5;" x1="283.5" x2="371.5" y1="173" y2="173"/><text fill="#000000" font-family="sans-serif" font-size="11" lengthAdjust="spacingAndGlyphs" textLength="53" x="288.5" y="187.2104">add song</text><text fill="#000000" font-family="sans-serif" font-size="11" lengthAdjust="spacingAndGlyphs" textLength="78" x="288.5" y="200.0151">get next song</text><text fill="#000000" font-family="sans-serif" font-size="11" lengthAdjust="spacingAndGlyphs" textLength="75" x="288.5" y="212.8198">remove song</text><text fill="#000000" font-family="sans-serif" font-size="11" lengthAdjust="spacingAndGlyphs" textLength="71" x="288.5" y="225.6245">identify user</text><!--class User--><rect fill="#708090" filter="url(#fxv87izgwvmgp)" height="48" id="User" style="stroke: #000000; stroke-width: 1.5;" width="61" x="6" y="158.5"/><ellipse cx="21" cy="174.5" fill="#5F9EA0" rx="11" ry="11" style="stroke: #000000; stroke-width: 1.0;"/><path d="M23.9688,180.1406 Q23.3906,180.4375 22.75,180.5781 Q22.1094,180.7344 21.4063,180.7344 Q18.9063,180.7344 17.5781,179.0938 Q16.2656,177.4375 16.2656,174.3125 Q16.2656,171.1875 17.5781,169.5313 Q18.9063,167.875 21.4063,167.875 Q22.1094,167.875 22.75,168.0313 Q23.4063,168.1875 23.9688,168.4844 L23.9688,171.2031 Q23.3438,170.625 22.75,170.3594 Q22.1563,170.0781 21.5313,170.0781 Q20.1875,170.0781 19.5,171.1563 Q18.8125,172.2188 18.8125,174.3125 Q18.8125,176.4063 19.5,177.4844 Q20.1875,178.5469 21.5313,178.5469 Q22.1563,178.5469 22.75,178.2813 Q23.3438,178 23.9688,177.4219 L23.9688,180.1406 Z "/><text fill="#000000" font-family="sans-serif" font-size="12" lengthAdjust="spacingAndGlyphs" textLength="29" x="35" y="178.6543">User</text><line style="stroke: #000000; stroke-width: 1.5;" x1="7" x2="66" y1="190.5" y2="190.5"/><line style="stroke: #000000; stroke-width: 1.5;" x1="7" x2="66" y1="198.5" y2="198.5"/><!--link Library to Album--><path d="M196.2805,232.6991 C193.7298,257.2308 190.7136,286.24 188.3717,308.7635 " fill="none" id="Library-Album" style="stroke: #FFA500; stroke-width: 1.0;"/><polygon fill="#FFA500" points="197.6424,219.6007,193.0433,225.1548,196.4013,231.5363,201.0004,225.9822,197.6424,219.6007" style="stroke: #FFA500; stroke-width: 1.0;"/><text fill="#000000" font-family="sans-serif" font-size="13" lengthAdjust="spacingAndGlyphs" textLength="8" x="188.341" y="239.0979">1</text><text fill="#000000" font-family="sans-serif" font-size="13" lengthAdjust="spacingAndGlyphs" textLength="27" x="159.6567" y="297.9083">1...*</text><!--link Album to Song--><path d="M184.5,396.2916 C184.5,412.3711 184.5,429.676 184.5,443.9098 " fill="none" id="Album-Song" style="stroke: #FFA500; stroke-width: 1.0;"/><polygon fill="#FFA500" points="184.5,383.1675,180.5,389.1675,184.5,395.1675,188.5,389.1675,184.5,383.1675" style="stroke: #FFA500; stroke-width: 1.0;"/><text fill="#000000" font-family="sans-serif" font-size="13" lengthAdjust="spacingAndGlyphs" textLength="8" x="175.8375" y="402.6758">1</text><text fill="#000000" font-family="sans-serif" font-size="13" lengthAdjust="spacingAndGlyphs" textLength="27" x="154.7156" y="433.1544">1...*</text><!--link Queue to Song--><path d="M304.7634,244.554 C289.2173,284.8327 267.1952,338.0064 243.5,383 C232.4026,404.0723 217.9365,426.5673 206.1062,443.9798 " fill="none" id="Queue-Song" style="stroke: #FFA500; stroke-width: 1.0;"/><polygon fill="#FFA500" points="309.476,232.224,303.5975,236.4006,305.1919,243.4332,311.0703,239.2566,309.476,232.224" style="stroke: #FFA500; stroke-width: 1.0;"/><text fill="#000000" font-family="sans-serif" font-size="13" lengthAdjust="spacingAndGlyphs" textLength="8" x="298.3789" y="252.332">1</text><text fill="#000000" font-family="sans-serif" font-size="13" lengthAdjust="spacingAndGlyphs" textLength="27" x="213.7857" y="432.7657">1...*</text><!--link Admin to Queue--><path d="M327.5,56.1804 C327.5,75.4187 327.5,103.089 327.5,127.6312 " fill="none" id="Admin-Queue" style="stroke: #FFA500; stroke-width: 1.0;"/><polygon fill="#FFA500" points="327.5,132.8166,331.5,123.8166,327.5,127.8166,323.5,123.8166,327.5,132.8166" style="stroke: #FFA500; stroke-width: 1.0;"/><text fill="#000000" font-family="sans-serif" font-size="13" lengthAdjust="spacingAndGlyphs" textLength="60" x="328.5" y="99.0669">manages</text><!--link User to Library--><path d="M67.1485,182.5 C90.5741,182.5 123.3792,182.5 150.7088,182.5 " fill="none" id="User-Library" style="stroke: #FFA500; stroke-width: 1.0;"/><polygon fill="#FFA500" points="155.7446,182.5,146.7446,178.5,150.7446,182.5,146.7446,186.5,155.7446,182.5" style="stroke: #FFA500; stroke-width: 1.0;"/><text fill="#000000" font-family="sans-serif" font-size="13" lengthAdjust="spacingAndGlyphs" textLength="52" x="85.5" y="175.5669">browses</text><!--link User to Album--><path d="M58.3379,206.625 C81.7497,232.4887 119.3343,274.0095 147.4008,305.0154 " fill="none" id="User-Album" style="stroke: #FFA500; stroke-width: 1.0;"/><polygon fill="#FFA500" points="150.7748,308.7427,147.7007,299.3859,147.4194,305.0358,141.7696,304.7545,150.7748,308.7427" style="stroke: #FFA500; stroke-width: 1.0;"/><text fill="#000000" font-family="sans-serif" font-size="13" lengthAdjust="spacingAndGlyphs" textLength="52" x="125.5" y="275.0669">browses</text><!--link User to Song--><path d="M36.6799,206.8116 C37.9973,246.4222 45.0017,326.1652 78.5,383 C95.3502,411.5888 124.3688,435.7049 147.7881,451.9897 " fill="none" id="User-Song" style="stroke: #FFA500; stroke-width: 1.0;"/><polygon fill="#FFA500" points="152.0917,454.9386,146.9285,446.5516,147.9671,452.1123,142.4064,453.1509,152.0917,454.9386" style="stroke: #FFA500; stroke-width: 1.0;"/><text fill="#000000" font-family="sans-serif" font-size="13" lengthAdjust="spacingAndGlyphs" textLength="45" x="79.5" y="350.5669">selects</text><!--link User to Queue--><path d="M59.294,158.3946 C79.9844,138.4039 112.4646,111.4701 147,100 C192.7181,84.8159 242.3386,110.8264 277.9618,137.5633 " fill="none" id="User-Queue" style="stroke: #FFA500; stroke-width: 1.0;"/><polygon fill="#FFA500" points="282.2354,140.8247,277.5075,132.1849,278.2606,137.7914,272.6541,138.5445,282.2354,140.8247" style="stroke: #FFA500; stroke-width: 1.0;"/><text fill="#000000" font-family="sans-serif" font-size="13" lengthAdjust="spacingAndGlyphs" textLength="55" x="148" y="99.0669">sends ID</text><!--
@startuml diagrams/DomainModeling

skinparam class {
    BackgroundColor SlateGrey
    ArrowColor Orange
    BorderColor Black
}
skinparam stereotypeCBackgroundColor CadetBlue
skinparam backgroundColor DarkSlateGrey


class Admin {

}

class Song {
    {method} play
}

class Album {
    {method} display song
    {method} select song
}

class Library {
    {method} display album
    {method} select album
}

class Queue {
    {method} add song
    {method} get next song
    {method} remove song
    {method} identify user

}

class User {

}

Library "1" *-d- "1...*" Album
Album "1" *-d- "1...*" Song
Queue "1" *- - - "1...*" Song
Admin - -> Queue : manages
User -r-> Library : browses
User -r-> Album : browses
User -r-> Song : selects
User -r-> Queue : sends ID

@enduml

PlantUML version 1.2017.15(Mon Jul 03 18:45:34 CEST 2017)
(GPL source distribution)
Java Runtime: OpenJDK Runtime Environment
JVM: OpenJDK 64-Bit Server VM
Java Version: 11.0.8+10-post-Ubuntu-0ubuntu118.04.1
Operating System: Linux
OS Version: 4.15.0-117-generic
Default Encoding: UTF-8
Language: en
Country: US
--></g></svg>