<?xml version="1.0" encoding="UTF-8" standalone="no"?><svg xmlns="http://www.w3.org/2000/svg" xmlns:xlink="http://www.w3.org/1999/xlink" contentScriptType="application/ecmascript" contentStyleType="text/css" height="568px" preserveAspectRatio="none" style="width:608px;height:568px;background:#2F4F4F;" version="1.1" viewBox="0 0 608 568" width="608px" zoomAndPan="magnify"><defs><filter height="300%" id="fs3bby64u3ctn" width="300%" x="-1" y="-1"><feGaussianBlur result="blurOut" stdDeviation="2.0"/><feColorMatrix in="blurOut" result="blurOut2" type="matrix" values="0 0 0 0 0 0 0 0 0 0 0 0 0 0 0 0 0 0 .4 0"/><feOffset dx="4.0" dy="4.0" in="blurOut2" result="blurOut3"/><feBlend in="SourceGraphic" in2="blurOut3" mode="normal"/></filter></defs><g><!--class Browsable--><rect fill="#708090" filter="url(#fs3bby64u3ctn)" height="71.5469" id="Browsable" style="stroke: #000000; stroke-width: 1.5;" width="174" x="283.5" y="153.5"/><ellipse cx="333.25" cy="172.4688" fill="#B4A7E5" rx="11" ry="11" style="stroke: #000000; stroke-width: 1.0;"/><path d="M329.1719,168.2344 L329.1719,166.0781 L336.5625,166.0781 L336.5625,168.2344 L334.0938,168.2344 L334.0938,176.3125 L336.5625,176.3125 L336.5625,178.4688 L329.1719,178.4688 L329.1719,176.3125 L331.6406,176.3125 L331.6406,168.2344 L329.1719,168.2344 Z "/><text fill="#000000" font-family="sans-serif" font-size="12" font-style="italic" lengthAdjust="spacingAndGlyphs" textLength="70" x="351.75" y="169.6387">«interface»</text><text fill="#000000" font-family="sans-serif" font-size="12" font-style="italic" lengthAdjust="spacingAndGlyphs" textLength="64" x="354.75" y="183.6074">Browsable</text><line style="stroke: #000000; stroke-width: 1.5;" x1="284.5" x2="456.5" y1="191.4375" y2="191.4375"/><ellipse cx="294.5" cy="203.3398" fill="#84BE84" rx="3" ry="3" style="stroke: #038048; stroke-width: 1.0;"/><text fill="#000000" font-family="sans-serif" font-size="11" lengthAdjust="spacingAndGlyphs" textLength="148" x="303.5" y="205.6479">getTitles(self): string[1..*]</text><ellipse cx="294.5" cy="216.1445" fill="#84BE84" rx="3" ry="3" style="stroke: #038048; stroke-width: 1.0;"/><text fill="#000000" font-family="sans-serif" font-size="11" lengthAdjust="spacingAndGlyphs" textLength="146" x="303.5" y="218.4526">getItem(self, string): item</text><!--class Identifyable--><rect fill="#708090" filter="url(#fs3bby64u3ctn)" height="58.7422" id="Identifyable" style="stroke: #000000; stroke-width: 1.5;" width="125" x="168" y="8"/><ellipse cx="191.55" cy="26.9688" fill="#B4A7E5" rx="11" ry="11" style="stroke: #000000; stroke-width: 1.0;"/><path d="M187.4719,22.7344 L187.4719,20.5781 L194.8625,20.5781 L194.8625,22.7344 L192.3938,22.7344 L192.3938,30.8125 L194.8625,30.8125 L194.8625,32.9688 L187.4719,32.9688 L187.4719,30.8125 L189.9406,30.8125 L189.9406,22.7344 L187.4719,22.7344 Z "/><text fill="#000000" font-family="sans-serif" font-size="12" font-style="italic" lengthAdjust="spacingAndGlyphs" textLength="70" x="209.45" y="24.1387">«interface»</text><text fill="#000000" font-family="sans-serif" font-size="12" font-style="italic" lengthAdjust="spacingAndGlyphs" textLength="74" x="207.45" y="38.1074">Identifyable</text><line style="stroke: #000000; stroke-width: 1.5;" x1="169" x2="292" y1="45.9375" y2="45.9375"/><ellipse cx="179" cy="57.8398" fill="#84BE84" rx="3" ry="3" style="stroke: #038048; stroke-width: 1.0;"/><text fill="#000000" font-family="sans-serif" font-size="11" lengthAdjust="spacingAndGlyphs" textLength="99" x="188" y="60.1479">getID(self): string</text><!--class Admin--><rect fill="#708090" filter="url(#fs3bby64u3ctn)" height="73.6094" id="Admin" style="stroke: #000000; stroke-width: 1.5;" width="132" x="465.5" y="337.5"/><ellipse cx="508.4" cy="353.5" fill="#5F9EA0" rx="11" ry="11" style="stroke: #000000; stroke-width: 1.0;"/><path d="M511.3688,359.1406 Q510.7906,359.4375 510.15,359.5781 Q509.5094,359.7344 508.8063,359.7344 Q506.3063,359.7344 504.9781,358.0938 Q503.6656,356.4375 503.6656,353.3125 Q503.6656,350.1875 504.9781,348.5313 Q506.3063,346.875 508.8063,346.875 Q509.5094,346.875 510.15,347.0313 Q510.8063,347.1875 511.3688,347.4844 L511.3688,350.2031 Q510.7438,349.625 510.15,349.3594 Q509.5563,349.0781 508.9313,349.0781 Q507.5875,349.0781 506.9,350.1563 Q506.2125,351.2188 506.2125,353.3125 Q506.2125,355.4063 506.9,356.4844 Q507.5875,357.5469 508.9313,357.5469 Q509.5563,357.5469 510.15,357.2813 Q510.7438,357 511.3688,356.4219 L511.3688,359.1406 Z "/><text fill="#000000" font-family="sans-serif" font-size="12" lengthAdjust="spacingAndGlyphs" textLength="38" x="528.6" y="357.6543">Admin</text><line style="stroke: #000000; stroke-width: 1.5;" x1="466.5" x2="596.5" y1="369.5" y2="369.5"/><line style="stroke: #000000; stroke-width: 1.5;" x1="466.5" x2="596.5" y1="377.5" y2="377.5"/><ellipse cx="476.5" cy="389.4023" fill="#84BE84" rx="3" ry="3" style="stroke: #038048; stroke-width: 1.0;"/><text fill="#000000" font-family="sans-serif" font-size="11" lengthAdjust="spacingAndGlyphs" textLength="106" x="485.5" y="391.7104">createUser(): User</text><ellipse cx="476.5" cy="402.207" fill="#84BE84" rx="3" ry="3" style="stroke: #038048; stroke-width: 1.0;"/><text fill="#000000" font-family="sans-serif" font-size="11" lengthAdjust="spacingAndGlyphs" textLength="91" x="485.5" y="404.5151">manageQueue()</text><!--class Song--><rect fill="#708090" filter="url(#fs3bby64u3ctn)" height="124.8281" id="Song" style="stroke: #000000; stroke-width: 1.5;" width="128" x="49.5" y="127"/><ellipse cx="93.3" cy="143" fill="#5F9EA0" rx="11" ry="11" style="stroke: #000000; stroke-width: 1.0;"/><path d="M96.2688,148.6406 Q95.6906,148.9375 95.05,149.0781 Q94.4094,149.2344 93.7063,149.2344 Q91.2063,149.2344 89.8781,147.5938 Q88.5656,145.9375 88.5656,142.8125 Q88.5656,139.6875 89.8781,138.0313 Q91.2063,136.375 93.7063,136.375 Q94.4094,136.375 95.05,136.5313 Q95.7063,136.6875 96.2688,136.9844 L96.2688,139.7031 Q95.6438,139.125 95.05,138.8594 Q94.4563,138.5781 93.8313,138.5781 Q92.4875,138.5781 91.8,139.6563 Q91.1125,140.7188 91.1125,142.8125 Q91.1125,144.9063 91.8,145.9844 Q92.4875,147.0469 93.8313,147.0469 Q94.4563,147.0469 95.05,146.7813 Q95.6438,146.5 96.2688,145.9219 L96.2688,148.6406 Z "/><text fill="#000000" font-family="sans-serif" font-size="12" lengthAdjust="spacingAndGlyphs" textLength="32" x="113.7" y="147.1543">Song</text><line style="stroke: #000000; stroke-width: 1.5;" x1="50.5" x2="176.5" y1="159" y2="159"/><rect fill="none" height="6" style="stroke: #C82930; stroke-width: 1.0;" width="6" x="57.5" y="167.9023"/><text fill="#000000" font-family="sans-serif" font-size="11" lengthAdjust="spacingAndGlyphs" textLength="51" x="69.5" y="173.2104">id: string</text><rect fill="none" height="6" style="stroke: #C82930; stroke-width: 1.0;" width="6" x="57.5" y="180.707"/><text fill="#000000" font-family="sans-serif" font-size="11" lengthAdjust="spacingAndGlyphs" textLength="71" x="69.5" y="186.0151">artist: string</text><rect fill="none" height="6" style="stroke: #C82930; stroke-width: 1.0;" width="6" x="57.5" y="193.5117"/><text fill="#000000" font-family="sans-serif" font-size="11" lengthAdjust="spacingAndGlyphs" textLength="76" x="69.5" y="198.8198">album: string</text><line style="stroke: #000000; stroke-width: 1.5;" x1="50.5" x2="176.5" y1="205.4141" y2="205.4141"/><ellipse cx="60.5" cy="217.3164" fill="#84BE84" rx="3" ry="3" style="stroke: #038048; stroke-width: 1.0;"/><text fill="#000000" font-family="sans-serif" font-size="11" lengthAdjust="spacingAndGlyphs" textLength="97" x="69.5" y="219.6245">getArtist(): string</text><ellipse cx="60.5" cy="230.1211" fill="#84BE84" rx="3" ry="3" style="stroke: #038048; stroke-width: 1.0;"/><text fill="#000000" font-family="sans-serif" font-size="11" lengthAdjust="spacingAndGlyphs" textLength="102" x="69.5" y="232.4292">getAlbum(): string</text><ellipse cx="60.5" cy="242.9258" fill="#84BE84" rx="3" ry="3" style="stroke: #038048; stroke-width: 1.0;"/><text fill="#000000" font-family="sans-serif" font-size="11" lengthAdjust="spacingAndGlyphs" textLength="31" x="69.5" y="245.2339">play()</text><!--class Album--><rect fill="#708090" filter="url(#fs3bby64u3ctn)" height="73.6094" id="Album" style="stroke: #000000; stroke-width: 1.5;" width="131" x="186" y="337.5"/><ellipse cx="228.45" cy="353.5" fill="#5F9EA0" rx="11" ry="11" style="stroke: #000000; stroke-width: 1.0;"/><path d="M231.4188,359.1406 Q230.8406,359.4375 230.2,359.5781 Q229.5594,359.7344 228.8563,359.7344 Q226.3563,359.7344 225.0281,358.0938 Q223.7156,356.4375 223.7156,353.3125 Q223.7156,350.1875 225.0281,348.5313 Q226.3563,346.875 228.8563,346.875 Q229.5594,346.875 230.2,347.0313 Q230.8563,347.1875 231.4188,347.4844 L231.4188,350.2031 Q230.7938,349.625 230.2,349.3594 Q229.6063,349.0781 228.9813,349.0781 Q227.6375,349.0781 226.95,350.1563 Q226.2625,351.2188 226.2625,353.3125 Q226.2625,355.4063 226.95,356.4844 Q227.6375,357.5469 228.9813,357.5469 Q229.6063,357.5469 230.2,357.2813 Q230.7938,357 231.4188,356.4219 L231.4188,359.1406 Z "/><text fill="#000000" font-family="sans-serif" font-size="12" lengthAdjust="spacingAndGlyphs" textLength="38" x="248.55" y="357.6543">Album</text><line style="stroke: #000000; stroke-width: 1.5;" x1="187" x2="316" y1="369.5" y2="369.5"/><rect fill="none" height="6" style="stroke: #C82930; stroke-width: 1.0;" width="6" x="194" y="378.4023"/><text fill="#000000" font-family="sans-serif" font-size="11" lengthAdjust="spacingAndGlyphs" textLength="51" x="206" y="383.7104">id: string</text><rect fill="none" height="6" style="stroke: #C82930; stroke-width: 1.0;" width="6" x="194" y="391.207"/><text fill="#000000" font-family="sans-serif" font-size="11" lengthAdjust="spacingAndGlyphs" textLength="105" x="206" y="396.5151">songs: Song[1...*]</text><line style="stroke: #000000; stroke-width: 1.5;" x1="187" x2="316" y1="403.1094" y2="403.1094"/><!--class Library--><rect fill="#708090" filter="url(#fs3bby64u3ctn)" height="60.8047" id="Library" style="stroke: #000000; stroke-width: 1.5;" width="144" x="238.5" y="497"/><ellipse cx="285.75" cy="513" fill="#5F9EA0" rx="11" ry="11" style="stroke: #000000; stroke-width: 1.0;"/><path d="M288.7188,518.6406 Q288.1406,518.9375 287.5,519.0781 Q286.8594,519.2344 286.1563,519.2344 Q283.6563,519.2344 282.3281,517.5938 Q281.0156,515.9375 281.0156,512.8125 Q281.0156,509.6875 282.3281,508.0313 Q283.6563,506.375 286.1563,506.375 Q286.8594,506.375 287.5,506.5313 Q288.1563,506.6875 288.7188,506.9844 L288.7188,509.7031 Q288.0938,509.125 287.5,508.8594 Q286.9063,508.5781 286.2813,508.5781 Q284.9375,508.5781 284.25,509.6563 Q283.5625,510.7188 283.5625,512.8125 Q283.5625,514.9063 284.25,515.9844 Q284.9375,517.0469 286.2813,517.0469 Q286.9063,517.0469 287.5,516.7813 Q288.0938,516.5 288.7188,515.9219 L288.7188,518.6406 Z "/><text fill="#000000" font-family="sans-serif" font-size="12" lengthAdjust="spacingAndGlyphs" textLength="41" x="306.25" y="517.1543">Library</text><line style="stroke: #000000; stroke-width: 1.5;" x1="239.5" x2="381.5" y1="529" y2="529"/><rect fill="none" height="6" style="stroke: #C82930; stroke-width: 1.0;" width="6" x="246.5" y="537.9023"/><text fill="#000000" font-family="sans-serif" font-size="11" lengthAdjust="spacingAndGlyphs" textLength="118" x="258.5" y="543.2104">albums: Album[1...*]</text><line style="stroke: #000000; stroke-width: 1.5;" x1="239.5" x2="381.5" y1="549.8047" y2="549.8047"/><!--class Queue--><rect fill="#708090" filter="url(#fs3bby64u3ctn)" height="124.8281" id="Queue" style="stroke: #000000; stroke-width: 1.5;" width="145" x="6" y="312"/><ellipse cx="53.75" cy="328" fill="#5F9EA0" rx="11" ry="11" style="stroke: #000000; stroke-width: 1.0;"/><path d="M56.7188,333.6406 Q56.1406,333.9375 55.5,334.0781 Q54.8594,334.2344 54.1563,334.2344 Q51.6563,334.2344 50.3281,332.5938 Q49.0156,330.9375 49.0156,327.8125 Q49.0156,324.6875 50.3281,323.0313 Q51.6563,321.375 54.1563,321.375 Q54.8594,321.375 55.5,321.5313 Q56.1563,321.6875 56.7188,321.9844 L56.7188,324.7031 Q56.0938,324.125 55.5,323.8594 Q54.9063,323.5781 54.2813,323.5781 Q52.9375,323.5781 52.25,324.6563 Q51.5625,325.7188 51.5625,327.8125 Q51.5625,329.9063 52.25,330.9844 Q52.9375,332.0469 54.2813,332.0469 Q54.9063,332.0469 55.5,331.7813 Q56.0938,331.5 56.7188,330.9219 L56.7188,333.6406 Z "/><text fill="#000000" font-family="sans-serif" font-size="12" lengthAdjust="spacingAndGlyphs" textLength="41" x="74.25" y="332.1543">Queue</text><line style="stroke: #000000; stroke-width: 1.5;" x1="7" x2="150" y1="344" y2="344"/><rect fill="none" height="6" style="stroke: #C82930; stroke-width: 1.0;" width="6" x="14" y="352.9023"/><text fill="#000000" font-family="sans-serif" font-size="11" lengthAdjust="spacingAndGlyphs" textLength="78" x="26" y="358.2104">current: Song</text><rect fill="none" height="6" style="stroke: #C82930; stroke-width: 1.0;" width="6" x="14" y="365.707"/><text fill="#000000" font-family="sans-serif" font-size="11" lengthAdjust="spacingAndGlyphs" textLength="119" x="26" y="371.0151">next: Song linked list</text><rect fill="none" height="6" style="stroke: #C82930; stroke-width: 1.0;" width="6" x="14" y="378.5117"/><text fill="#000000" font-family="sans-serif" font-size="11" lengthAdjust="spacingAndGlyphs" textLength="104" x="26" y="383.8198">songsByUser: dict</text><line style="stroke: #000000; stroke-width: 1.5;" x1="7" x2="150" y1="390.4141" y2="390.4141"/><ellipse cx="17" cy="402.3164" fill="#84BE84" rx="3" ry="3" style="stroke: #038048; stroke-width: 1.0;"/><text fill="#000000" font-family="sans-serif" font-size="11" lengthAdjust="spacingAndGlyphs" textLength="106" x="26" y="404.6245">add(Song, integer)</text><ellipse cx="17" cy="415.1211" fill="#84BE84" rx="3" ry="3" style="stroke: #038048; stroke-width: 1.0;"/><text fill="#000000" font-family="sans-serif" font-size="11" lengthAdjust="spacingAndGlyphs" textLength="80" x="26" y="417.4292">remove(Song)</text><rect fill="#F24D5C" height="6" style="stroke: #C82930; stroke-width: 1.0;" width="6" x="14" y="424.9258"/><text fill="#000000" font-family="sans-serif" font-size="11" lengthAdjust="spacingAndGlyphs" textLength="117" x="26" y="430.2339">getNextSong(): Song</text><!--class User--><rect fill="#708090" filter="url(#fs3bby64u3ctn)" height="60.8047" id="User" style="stroke: #000000; stroke-width: 1.5;" width="77" x="493" y="159"/><ellipse cx="515.2" cy="175" fill="#5F9EA0" rx="11" ry="11" style="stroke: #000000; stroke-width: 1.0;"/><path d="M518.1688,180.6406 Q517.5906,180.9375 516.95,181.0781 Q516.3094,181.2344 515.6063,181.2344 Q513.1063,181.2344 511.7781,179.5938 Q510.4656,177.9375 510.4656,174.8125 Q510.4656,171.6875 511.7781,170.0313 Q513.1063,168.375 515.6063,168.375 Q516.3094,168.375 516.95,168.5313 Q517.6063,168.6875 518.1688,168.9844 L518.1688,171.7031 Q517.5438,171.125 516.95,170.8594 Q516.3563,170.5781 515.7313,170.5781 Q514.3875,170.5781 513.7,171.6563 Q513.0125,172.7188 513.0125,174.8125 Q513.0125,176.9063 513.7,177.9844 Q514.3875,179.0469 515.7313,179.0469 Q516.3563,179.0469 516.95,178.7813 Q517.5438,178.5 518.1688,177.9219 L518.1688,180.6406 Z "/><text fill="#000000" font-family="sans-serif" font-size="12" lengthAdjust="spacingAndGlyphs" textLength="29" x="530.8" y="179.1543">User</text><line style="stroke: #000000; stroke-width: 1.5;" x1="494" x2="569" y1="191" y2="191"/><rect fill="none" height="6" style="stroke: #C82930; stroke-width: 1.0;" width="6" x="501" y="199.9023"/><text fill="#000000" font-family="sans-serif" font-size="11" lengthAdjust="spacingAndGlyphs" textLength="51" x="513" y="205.2104">id: string</text><line style="stroke: #000000; stroke-width: 1.5;" x1="494" x2="569" y1="211.8047" y2="211.8047"/><!--link Browsable to Library--><path d="M364.189,245.7245 C358.0924,296.0976 347.8287,371.8614 334.5,437 C330.3942,457.0654 324.5161,479.3024 319.6049,496.7126 " fill="none" id="Browsable-Library" style="stroke: #FFA500; stroke-width: 1.0; stroke-dasharray: 7.0,7.0;"/><polygon fill="none" points="357.2452,244.8361,366.5435,225.7956,371.1485,246.4788,357.2452,244.8361" style="stroke: #FFA500; stroke-width: 1.0;"/><!--link Browsable to Album--><path d="M336.404,242.5064 C316.9258,272.7876 292.9757,310.021 275.4841,337.2138 " fill="none" id="Browsable-Album" style="stroke: #FFA500; stroke-width: 1.0; stroke-dasharray: 7.0,7.0;"/><polygon fill="none" points="330.5661,238.6427,347.2731,225.609,342.3405,246.2166,330.5661,238.6427" style="stroke: #FFA500; stroke-width: 1.0;"/><!--link Identifyable to Album--><path d="M233.6001,87.2488 C237.8482,155.4212 245.3831,276.3381 249.1784,337.244 " fill="none" id="Identifyable-Album" style="stroke: #FFA500; stroke-width: 1.0; stroke-dasharray: 7.0,7.0;"/><polygon fill="none" points="226.6027,87.5078,232.3452,67.1111,240.5756,86.637,226.6027,87.5078" style="stroke: #FFA500; stroke-width: 1.0;"/><!--link Identifyable to Song--><path d="M195.4538,83.0301 C184.8454,96.8119 173.0039,112.1957 161.6932,126.89 " fill="none" id="Identifyable-Song" style="stroke: #FFA500; stroke-width: 1.0; stroke-dasharray: 7.0,7.0;"/><polygon fill="none" points="189.9172,78.7468,207.6635,67.168,201.0112,87.2863,189.9172,78.7468" style="stroke: #FFA500; stroke-width: 1.0;"/><!--link Identifyable to User--><path d="M312.526,56.5925 C362.5017,70.7683 426.0392,93.508 475.5,127 C488.1668,135.5772 499.8636,147.6327 509.2553,158.8702 " fill="none" id="Identifyable-User" style="stroke: #FFA500; stroke-width: 1.0; stroke-dasharray: 7.0,7.0;"/><polygon fill="none" points="310.526,63.303,293.0603,51.3051,314.1959,49.7925,310.526,63.303" style="stroke: #FFA500; stroke-width: 1.0;"/><!--link Song to Album--><path d="M160.2205,252.1326 C178.4462,276.5656 198.9951,304.113 215.9747,326.8756 " fill="none" id="Song-Album" style="stroke: #FFA500; stroke-width: 1.0;"/><polygon fill="#FFA500" points="223.75,337.2989,223.3687,330.0979,216.575,327.6802,216.9563,334.8812,223.75,337.2989" style="stroke: #FFA500; stroke-width: 1.0;"/><text fill="#000000" font-family="sans-serif" font-size="13" lengthAdjust="spacingAndGlyphs" textLength="23" x="141.0727" y="271.8869">1..*</text><text fill="#000000" font-family="sans-serif" font-size="13" lengthAdjust="spacingAndGlyphs" textLength="8" x="210.0945" y="326.45">1</text><!--link Album to Library--><path d="M265.7823,411.537 C274.2997,433.6247 285.1479,461.7564 294.0263,484.7801 " fill="none" id="Album-Library" style="stroke: #FFA500; stroke-width: 1.0;"/><polygon fill="#FFA500" points="298.7288,496.9747,300.3021,489.9373,294.4112,485.7783,292.8379,492.8157,298.7288,496.9747" style="stroke: #FFA500; stroke-width: 1.0;"/><text fill="#000000" font-family="sans-serif" font-size="13" lengthAdjust="spacingAndGlyphs" textLength="23" x="243.2605" y="431.3037">1..*</text><text fill="#000000" font-family="sans-serif" font-size="13" lengthAdjust="spacingAndGlyphs" textLength="8" x="287.2789" y="485.7594">1</text><!--link Song to Queue--><path d="M101.6506,252.1326 C98.7998,267.201 95.7249,283.4541 92.7765,299.0387 " fill="none" id="Song-Queue" style="stroke: #FFA500; stroke-width: 1.0;"/><polygon fill="#2F4F4F" points="90.3372,311.9319,95.3829,306.7801,92.568,300.1411,87.5223,305.2929,90.3372,311.9319" style="stroke: #FFA500; stroke-width: 1.0;"/><text fill="#000000" font-family="sans-serif" font-size="13" lengthAdjust="spacingAndGlyphs" textLength="23" x="76.0968" y="271.8869">0..*</text><text fill="#000000" font-family="sans-serif" font-size="13" lengthAdjust="spacingAndGlyphs" textLength="8" x="83.2434" y="300.9148">1</text><!--link User to Admin--><path d="M531.5,240.2794 C531.5,270.9397 531.5,309.3362 531.5,337.1982 " fill="none" id="User-Admin" style="stroke: #FFA500; stroke-width: 1.0;"/><polygon fill="none" points="524.5001,240.049,531.5,220.049,538.5001,240.049,524.5001,240.049" style="stroke: #FFA500; stroke-width: 1.0;"/><!--
@startuml diagrams/InheritanceAndComposition
skinparam class {
    BackgroundColor SlateGrey
    ArrowColor Orange
    BorderColor Black
}
skinparam stereotypeCBackgroundColor CadetBlue
skinparam backgroundColor DarkSlateGrey

interface Browsable <<interface>> {
    + getTitles(self): string[1..*]
    + getItem(self, string): item
}

interface Identifyable <<interface>> {
    + getID(self): string
}

class Admin {
    + createUser(): User
    + manageQueue()
}

class Song {
    - id: string
    - artist: string
    - album: string
    + getArtist(): string
    + getAlbum(): string
    + play()
}

class Album {
    - id: string
    - songs: Song[1...*]
}

class Library {
    - albums: Album[1...*]
}

class Queue {
    - current: Song
    - next: Song linked list
    - songsByUser: dict
    + add(Song, integer)
    + remove(Song)
    - getNextSong(): Song
}

class User {
    - id: string
}

hide <<interface>> fields

Library .u.|> Browsable
Album .u.|> Browsable
Album .u.|> Identifyable
Song .u.|> Identifyable
User .u.|> Identifyable
Song "1..*" - -* "1" Album
Album "1..*" - -* "1" Library
Song "0..*" - -o "1" Queue
Admin -u-|> User

@enduml

PlantUML version 1.2017.15(Mon Jul 03 18:45:34 CEST 2017)
(GPL source distribution)
Java Runtime: OpenJDK Runtime Environment
JVM: OpenJDK 64-Bit Server VM
Java Version: 11.0.8+10-post-Ubuntu-0ubuntu118.04.1
Operating System: Linux
OS Version: 4.15.0-117-generic
Default Encoding: UTF-8
Language: en
Country: US
--></g></svg>