<?xml version="1.0" encoding="UTF-8" standalone="no"?><svg xmlns="http://www.w3.org/2000/svg" xmlns:xlink="http://www.w3.org/1999/xlink" contentScriptType="application/ecmascript" contentStyleType="text/css" height="326px" preserveAspectRatio="none" style="width:434px;height:326px;background:#2F4F4F;" version="1.1" viewBox="0 0 434 326" width="434px" zoomAndPan="magnify"><defs><filter height="300%" id="f1b8piwc7bltol" width="300%" x="-1" y="-1"><feGaussianBlur result="blurOut" stdDeviation="2.0"/><feColorMatrix in="blurOut" result="blurOut2" type="matrix" values="0 0 0 0 0 0 0 0 0 0 0 0 0 0 0 0 0 0 .4 0"/><feOffset dx="4.0" dy="4.0" in="blurOut2" result="blurOut3"/><feBlend in="SourceGraphic" in2="blurOut3" mode="normal"/></filter></defs><g><!--class SpaceShip--><rect fill="#708090" filter="url(#f1b8piwc7bltol)" height="112.0234" id="SpaceShip" style="stroke: #000000; stroke-width: 1.5;" width="132" x="134" y="203"/><ellipse cx="164.3" cy="219" fill="#A9DCDF" rx="11" ry="11" style="stroke: #000000; stroke-width: 1.0;"/><path d="M164.4094,214.3438 L163.2531,219.4219 L165.5813,219.4219 L164.4094,214.3438 Z M162.925,212.1094 L165.9094,212.1094 L169.2688,224.5 L166.8156,224.5 L166.05,221.4375 L162.7688,221.4375 L162.0188,224.5 L159.5813,224.5 L162.925,212.1094 Z "/><text fill="#000000" font-family="sans-serif" font-size="12" font-style="italic" lengthAdjust="spacingAndGlyphs" textLength="66" x="181.7" y="223.1543">SpaceShip</text><line style="stroke: #000000; stroke-width: 1.5;" x1="135" x2="265" y1="235" y2="235"/><text fill="#000000" font-family="sans-serif" font-size="11" lengthAdjust="spacingAndGlyphs" textLength="99" x="140" y="249.2104">shieldActive: bool</text><text fill="#000000" font-family="sans-serif" font-size="11" lengthAdjust="spacingAndGlyphs" textLength="105" x="140" y="262.0151">shieldStrength: int</text><text fill="#000000" font-family="sans-serif" font-size="11" lengthAdjust="spacingAndGlyphs" textLength="120" x="140" y="274.8198">position: coordinates</text><line style="stroke: #000000; stroke-width: 1.5;" x1="135" x2="265" y1="281.4141" y2="281.4141"/><text fill="#000000" font-family="sans-serif" font-size="11" lengthAdjust="spacingAndGlyphs" textLength="61" x="140" y="295.6245">setShield()</text><text fill="#000000" font-family="sans-serif" font-size="11" lengthAdjust="spacingAndGlyphs" textLength="39" x="140" y="308.4292">move()</text><!--class StarFighter--><rect fill="#708090" filter="url(#f1b8piwc7bltol)" height="73.6094" id="StarFighter" style="stroke: #000000; stroke-width: 1.5;" width="102" x="6" y="8"/><ellipse cx="21" cy="24" fill="#5F9EA0" rx="11" ry="11" style="stroke: #000000; stroke-width: 1.0;"/><path d="M23.9688,29.6406 Q23.3906,29.9375 22.75,30.0781 Q22.1094,30.2344 21.4063,30.2344 Q18.9063,30.2344 17.5781,28.5938 Q16.2656,26.9375 16.2656,23.8125 Q16.2656,20.6875 17.5781,19.0313 Q18.9063,17.375 21.4063,17.375 Q22.1094,17.375 22.75,17.5313 Q23.4063,17.6875 23.9688,17.9844 L23.9688,20.7031 Q23.3438,20.125 22.75,19.8594 Q22.1563,19.5781 21.5313,19.5781 Q20.1875,19.5781 19.5,20.6563 Q18.8125,21.7188 18.8125,23.8125 Q18.8125,25.9063 19.5,26.9844 Q20.1875,28.0469 21.5313,28.0469 Q22.1563,28.0469 22.75,27.7813 Q23.3438,27.5 23.9688,26.9219 L23.9688,29.6406 Z "/><text fill="#000000" font-family="sans-serif" font-size="12" lengthAdjust="spacingAndGlyphs" textLength="70" x="35" y="28.1543">StarFighter</text><line style="stroke: #000000; stroke-width: 1.5;" x1="7" x2="107" y1="40" y2="40"/><line style="stroke: #000000; stroke-width: 1.5;" x1="7" x2="107" y1="48" y2="48"/><text fill="#000000" font-family="sans-serif" font-size="11" lengthAdjust="spacingAndGlyphs" textLength="39" x="12" y="62.2104">move()</text><text fill="#000000" font-family="sans-serif" font-size="11" lengthAdjust="spacingAndGlyphs" textLength="66" x="12" y="75.0151">fireMissile()</text><!--class CargoShuttle--><rect fill="#708090" filter="url(#f1b8piwc7bltol)" height="73.6094" id="CargoShuttle" style="stroke: #000000; stroke-width: 1.5;" width="114" x="143" y="8"/><ellipse cx="158" cy="24" fill="#5F9EA0" rx="11" ry="11" style="stroke: #000000; stroke-width: 1.0;"/><path d="M160.9688,29.6406 Q160.3906,29.9375 159.75,30.0781 Q159.1094,30.2344 158.4063,30.2344 Q155.9063,30.2344 154.5781,28.5938 Q153.2656,26.9375 153.2656,23.8125 Q153.2656,20.6875 154.5781,19.0313 Q155.9063,17.375 158.4063,17.375 Q159.1094,17.375 159.75,17.5313 Q160.4063,17.6875 160.9688,17.9844 L160.9688,20.7031 Q160.3438,20.125 159.75,19.8594 Q159.1563,19.5781 158.5313,19.5781 Q157.1875,19.5781 156.5,20.6563 Q155.8125,21.7188 155.8125,23.8125 Q155.8125,25.9063 156.5,26.9844 Q157.1875,28.0469 158.5313,28.0469 Q159.1563,28.0469 159.75,27.7813 Q160.3438,27.5 160.9688,26.9219 L160.9688,29.6406 Z "/><text fill="#000000" font-family="sans-serif" font-size="12" lengthAdjust="spacingAndGlyphs" textLength="82" x="172" y="28.1543">CargoShuttle</text><line style="stroke: #000000; stroke-width: 1.5;" x1="144" x2="256" y1="40" y2="40"/><line style="stroke: #000000; stroke-width: 1.5;" x1="144" x2="256" y1="48" y2="48"/><text fill="#000000" font-family="sans-serif" font-size="11" lengthAdjust="spacingAndGlyphs" textLength="39" x="149" y="62.2104">move()</text><text fill="#000000" font-family="sans-serif" font-size="11" lengthAdjust="spacingAndGlyphs" textLength="68" x="149" y="75.0151">dropCargo()</text><!--class WarpCruiser--><rect fill="#708090" filter="url(#f1b8piwc7bltol)" height="60.8047" id="WarpCruiser" style="stroke: #000000; stroke-width: 1.5;" width="108" x="292" y="14.5"/><ellipse cx="307" cy="30.5" fill="#5F9EA0" rx="11" ry="11" style="stroke: #000000; stroke-width: 1.0;"/><path d="M309.9688,36.1406 Q309.3906,36.4375 308.75,36.5781 Q308.1094,36.7344 307.4063,36.7344 Q304.9063,36.7344 303.5781,35.0938 Q302.2656,33.4375 302.2656,30.3125 Q302.2656,27.1875 303.5781,25.5313 Q304.9063,23.875 307.4063,23.875 Q308.1094,23.875 308.75,24.0313 Q309.4063,24.1875 309.9688,24.4844 L309.9688,27.2031 Q309.3438,26.625 308.75,26.3594 Q308.1563,26.0781 307.5313,26.0781 Q306.1875,26.0781 305.5,27.1563 Q304.8125,28.2188 304.8125,30.3125 Q304.8125,32.4063 305.5,33.4844 Q306.1875,34.5469 307.5313,34.5469 Q308.1563,34.5469 308.75,34.2813 Q309.3438,34 309.9688,33.4219 L309.9688,36.1406 Z "/><text fill="#000000" font-family="sans-serif" font-size="12" lengthAdjust="spacingAndGlyphs" textLength="76" x="321" y="34.6543">WarpCruiser</text><line style="stroke: #000000; stroke-width: 1.5;" x1="293" x2="399" y1="46.5" y2="46.5"/><line style="stroke: #000000; stroke-width: 1.5;" x1="293" x2="399" y1="54.5" y2="54.5"/><text fill="#000000" font-family="sans-serif" font-size="11" lengthAdjust="spacingAndGlyphs" textLength="39" x="298" y="68.7104">move()</text><polygon fill="#FBFB77" filter="url(#f1b8piwc7bltol)" points="301.5,246.5,301.5,271.6328,412.5,271.6328,412.5,256.5,402.5,246.5,301.5,246.5" style="stroke: #A80036; stroke-width: 1.0;"/><polygon fill="#FBFB77" points="301.5,246.5,301.5,255,266.2344,259,301.5,263,301.5,271.6328,412.5,271.6328,412.5,256.5,402.5,246.5,301.5,246.5" style="stroke: #A80036; stroke-width: 1.0;"/><line style="stroke: #A80036; stroke-width: 1.0;" x1="402.5" x2="402.5" y1="246.5" y2="256.5"/><line style="stroke: #A80036; stroke-width: 1.0;" x1="412.5" x2="402.5" y1="256.5" y2="256.5"/><text fill="#000000" font-family="sans-serif" font-size="13" lengthAdjust="spacingAndGlyphs" textLength="90" x="307.5" y="263.5669">Abstract class</text><!--link StarFighter to SpaceShip--><path d="M81.9087,82.276 C101.0261,110.8852 128.0144,151.2733 151.3659,186.219 " fill="none" id="StarFighter-SpaceShip" style="stroke: #FFA500; stroke-width: 1.0;"/><polygon fill="none" points="157.195,182.3432,162.4868,202.8614,145.5547,190.1215,157.195,182.3432" style="stroke: #FFA500; stroke-width: 1.0;"/><!--link CargoShuttle to SpaceShip--><path d="M200,82.276 C200,109.8448 200,148.3516 200,182.3859 " fill="none" id="CargoShuttle-SpaceShip" style="stroke: #FFA500; stroke-width: 1.0;"/><polygon fill="none" points="207.0001,182.8614,200,202.8614,193.0001,182.8614,207.0001,182.8614" style="stroke: #FFA500; stroke-width: 1.0;"/><!--link WarpCruiser to SpaceShip--><path d="M325.0818,75.661 C305.4821,104.3892 275.431,148.4368 249.6964,186.1573 " fill="none" id="WarpCruiser-SpaceShip" style="stroke: #FFA500; stroke-width: 1.0;"/><polygon fill="none" points="255.4705,190.1147,238.4164,202.691,243.9056,182.2246,255.4705,190.1147" style="stroke: #FFA500; stroke-width: 1.0;"/><!--
@startuml diagrams/Inheritance
skinparam class {
    BackgroundColor SlateGrey
    ArrowColor Orange
    BorderColor Black
}
skinparam stereotypeCBackgroundColor CadetBlue
skinparam backgroundColor DarkSlateGrey

abstract class SpaceShip {
    shieldActive: bool
    shieldStrength: int
    position: coordinates
    setShield()
    move()
}

class StarFighter {
    move()
    fireMissile()
}

class CargoShuttle {
    move()
    dropCargo()
}

class WarpCruiser {
    move()
}

StarFighter - - -|> SpaceShip
CargoShuttle - - -|> SpaceShip
WarpCruiser - - -|> SpaceShip

abstract class SpaceShip
note right: Abstract class

@enduml

PlantUML version 1.2017.15(Mon Jul 03 18:45:34 CEST 2017)
(GPL source distribution)
Java Runtime: OpenJDK Runtime Environment
JVM: OpenJDK 64-Bit Server VM
Java Version: 11.0.8+10-post-Ubuntu-0ubuntu118.04.1
Operating System: Linux
OS Version: 4.15.0-117-generic
Default Encoding: UTF-8
Language: en
Country: US
--></g></svg>