<?xml version="1.0" encoding="UTF-8" standalone="no"?><svg xmlns="http://www.w3.org/2000/svg" xmlns:xlink="http://www.w3.org/1999/xlink" contentScriptType="application/ecmascript" contentStyleType="text/css" height="396px" preserveAspectRatio="none" style="width:653px;height:396px;background:#2F4F4F;" version="1.1" viewBox="0 0 653 396" width="653px" zoomAndPan="magnify"><defs><filter height="300%" id="fye0l68ak4g9b" width="300%" x="-1" y="-1"><feGaussianBlur result="blurOut" stdDeviation="2.0"/><feColorMatrix in="blurOut" result="blurOut2" type="matrix" values="0 0 0 0 0 0 0 0 0 0 0 0 0 0 0 0 0 0 .4 0"/><feOffset dx="4.0" dy="4.0" in="blurOut2" result="blurOut3"/><feBlend in="SourceGraphic" in2="blurOut3" mode="normal"/></filter></defs><g><!--class SpaceShip--><rect fill="#708090" filter="url(#fye0l68ak4g9b)" height="112.0234" id="SpaceShip" style="stroke: #000000; stroke-width: 1.5;" width="132" x="143" y="127"/><ellipse cx="173.3" cy="143" fill="#A9DCDF" rx="11" ry="11" style="stroke: #000000; stroke-width: 1.0;"/><path d="M173.4094,138.3438 L172.2531,143.4219 L174.5813,143.4219 L173.4094,138.3438 Z M171.925,136.1094 L174.9094,136.1094 L178.2688,148.5 L175.8156,148.5 L175.05,145.4375 L171.7688,145.4375 L171.0188,148.5 L168.5813,148.5 L171.925,136.1094 Z "/><text fill="#000000" font-family="sans-serif" font-size="12" font-style="italic" lengthAdjust="spacingAndGlyphs" textLength="66" x="190.7" y="147.1543">SpaceShip</text><line style="stroke: #000000; stroke-width: 1.5;" x1="144" x2="274" y1="159" y2="159"/><text fill="#000000" font-family="sans-serif" font-size="11" lengthAdjust="spacingAndGlyphs" textLength="99" x="149" y="173.2104">shieldActive: bool</text><text fill="#000000" font-family="sans-serif" font-size="11" lengthAdjust="spacingAndGlyphs" textLength="105" x="149" y="186.0151">shieldStrength: int</text><text fill="#000000" font-family="sans-serif" font-size="11" lengthAdjust="spacingAndGlyphs" textLength="120" x="149" y="198.8198">position: coordinates</text><line style="stroke: #000000; stroke-width: 1.5;" x1="144" x2="274" y1="205.4141" y2="205.4141"/><text fill="#000000" font-family="sans-serif" font-size="11" lengthAdjust="spacingAndGlyphs" textLength="61" x="149" y="219.6245">setShield()</text><text fill="#000000" font-family="sans-serif" font-size="11" lengthAdjust="spacingAndGlyphs" textLength="39" x="149" y="232.4292">move()</text><!--class StarFighter--><rect fill="#708090" filter="url(#fye0l68ak4g9b)" height="86.4141" id="StarFighter" style="stroke: #000000; stroke-width: 1.5;" width="102" x="298" y="299"/><ellipse cx="313" cy="315" fill="#5F9EA0" rx="11" ry="11" style="stroke: #000000; stroke-width: 1.0;"/><path d="M315.9688,320.6406 Q315.3906,320.9375 314.75,321.0781 Q314.1094,321.2344 313.4063,321.2344 Q310.9063,321.2344 309.5781,319.5938 Q308.2656,317.9375 308.2656,314.8125 Q308.2656,311.6875 309.5781,310.0313 Q310.9063,308.375 313.4063,308.375 Q314.1094,308.375 314.75,308.5313 Q315.4063,308.6875 315.9688,308.9844 L315.9688,311.7031 Q315.3438,311.125 314.75,310.8594 Q314.1563,310.5781 313.5313,310.5781 Q312.1875,310.5781 311.5,311.6563 Q310.8125,312.7188 310.8125,314.8125 Q310.8125,316.9063 311.5,317.9844 Q312.1875,319.0469 313.5313,319.0469 Q314.1563,319.0469 314.75,318.7813 Q315.3438,318.5 315.9688,317.9219 L315.9688,320.6406 Z "/><text fill="#000000" font-family="sans-serif" font-size="12" lengthAdjust="spacingAndGlyphs" textLength="70" x="327" y="319.1543">StarFighter</text><line style="stroke: #000000; stroke-width: 1.5;" x1="299" x2="399" y1="331" y2="331"/><line style="stroke: #000000; stroke-width: 1.5;" x1="299" x2="399" y1="339" y2="339"/><text fill="#000000" font-family="sans-serif" font-size="11" lengthAdjust="spacingAndGlyphs" textLength="39" x="304" y="353.2104">move()</text><text fill="#000000" font-family="sans-serif" font-size="11" lengthAdjust="spacingAndGlyphs" textLength="36" x="304" y="366.0151">draw()</text><text fill="#000000" font-family="sans-serif" font-size="11" lengthAdjust="spacingAndGlyphs" textLength="66" x="304" y="378.8198">fireMissile()</text><!--class CargoShuttle--><rect fill="#708090" filter="url(#fye0l68ak4g9b)" height="86.4141" id="CargoShuttle" style="stroke: #000000; stroke-width: 1.5;" width="114" x="6" y="299"/><ellipse cx="21" cy="315" fill="#5F9EA0" rx="11" ry="11" style="stroke: #000000; stroke-width: 1.0;"/><path d="M23.9688,320.6406 Q23.3906,320.9375 22.75,321.0781 Q22.1094,321.2344 21.4063,321.2344 Q18.9063,321.2344 17.5781,319.5938 Q16.2656,317.9375 16.2656,314.8125 Q16.2656,311.6875 17.5781,310.0313 Q18.9063,308.375 21.4063,308.375 Q22.1094,308.375 22.75,308.5313 Q23.4063,308.6875 23.9688,308.9844 L23.9688,311.7031 Q23.3438,311.125 22.75,310.8594 Q22.1563,310.5781 21.5313,310.5781 Q20.1875,310.5781 19.5,311.6563 Q18.8125,312.7188 18.8125,314.8125 Q18.8125,316.9063 19.5,317.9844 Q20.1875,319.0469 21.5313,319.0469 Q22.1563,319.0469 22.75,318.7813 Q23.3438,318.5 23.9688,317.9219 L23.9688,320.6406 Z "/><text fill="#000000" font-family="sans-serif" font-size="12" lengthAdjust="spacingAndGlyphs" textLength="82" x="35" y="319.1543">CargoShuttle</text><line style="stroke: #000000; stroke-width: 1.5;" x1="7" x2="119" y1="331" y2="331"/><line style="stroke: #000000; stroke-width: 1.5;" x1="7" x2="119" y1="339" y2="339"/><text fill="#000000" font-family="sans-serif" font-size="11" lengthAdjust="spacingAndGlyphs" textLength="39" x="12" y="353.2104">move()</text><text fill="#000000" font-family="sans-serif" font-size="11" lengthAdjust="spacingAndGlyphs" textLength="36" x="12" y="366.0151">draw()</text><text fill="#000000" font-family="sans-serif" font-size="11" lengthAdjust="spacingAndGlyphs" textLength="68" x="12" y="378.8198">dropCargo()</text><!--class WarpCruiser--><rect fill="#708090" filter="url(#fye0l68ak4g9b)" height="73.6094" id="WarpCruiser" style="stroke: #000000; stroke-width: 1.5;" width="108" x="155" y="305"/><ellipse cx="170" cy="321" fill="#5F9EA0" rx="11" ry="11" style="stroke: #000000; stroke-width: 1.0;"/><path d="M172.9688,326.6406 Q172.3906,326.9375 171.75,327.0781 Q171.1094,327.2344 170.4063,327.2344 Q167.9063,327.2344 166.5781,325.5938 Q165.2656,323.9375 165.2656,320.8125 Q165.2656,317.6875 166.5781,316.0313 Q167.9063,314.375 170.4063,314.375 Q171.1094,314.375 171.75,314.5313 Q172.4063,314.6875 172.9688,314.9844 L172.9688,317.7031 Q172.3438,317.125 171.75,316.8594 Q171.1563,316.5781 170.5313,316.5781 Q169.1875,316.5781 168.5,317.6563 Q167.8125,318.7188 167.8125,320.8125 Q167.8125,322.9063 168.5,323.9844 Q169.1875,325.0469 170.5313,325.0469 Q171.1563,325.0469 171.75,324.7813 Q172.3438,324.5 172.9688,323.9219 L172.9688,326.6406 Z "/><text fill="#000000" font-family="sans-serif" font-size="12" lengthAdjust="spacingAndGlyphs" textLength="76" x="184" y="325.1543">WarpCruiser</text><line style="stroke: #000000; stroke-width: 1.5;" x1="156" x2="262" y1="337" y2="337"/><line style="stroke: #000000; stroke-width: 1.5;" x1="156" x2="262" y1="345" y2="345"/><text fill="#000000" font-family="sans-serif" font-size="11" lengthAdjust="spacingAndGlyphs" textLength="39" x="161" y="359.2104">move()</text><text fill="#000000" font-family="sans-serif" font-size="11" lengthAdjust="spacingAndGlyphs" textLength="36" x="161" y="372.0151">draw()</text><!--class Asteroid--><rect fill="#708090" filter="url(#fye0l68ak4g9b)" height="73.6094" id="Asteroid" style="stroke: #000000; stroke-width: 1.5;" width="84" x="435" y="305"/><ellipse cx="450" cy="321" fill="#5F9EA0" rx="11" ry="11" style="stroke: #000000; stroke-width: 1.0;"/><path d="M452.9688,326.6406 Q452.3906,326.9375 451.75,327.0781 Q451.1094,327.2344 450.4063,327.2344 Q447.9063,327.2344 446.5781,325.5938 Q445.2656,323.9375 445.2656,320.8125 Q445.2656,317.6875 446.5781,316.0313 Q447.9063,314.375 450.4063,314.375 Q451.1094,314.375 451.75,314.5313 Q452.4063,314.6875 452.9688,314.9844 L452.9688,317.7031 Q452.3438,317.125 451.75,316.8594 Q451.1563,316.5781 450.5313,316.5781 Q449.1875,316.5781 448.5,317.6563 Q447.8125,318.7188 447.8125,320.8125 Q447.8125,322.9063 448.5,323.9844 Q449.1875,325.0469 450.5313,325.0469 Q451.1563,325.0469 451.75,324.7813 Q452.3438,324.5 452.9688,323.9219 L452.9688,326.6406 Z "/><text fill="#000000" font-family="sans-serif" font-size="12" lengthAdjust="spacingAndGlyphs" textLength="52" x="464" y="325.1543">Asteroid</text><line style="stroke: #000000; stroke-width: 1.5;" x1="436" x2="518" y1="337" y2="337"/><line style="stroke: #000000; stroke-width: 1.5;" x1="436" x2="518" y1="345" y2="345"/><text fill="#000000" font-family="sans-serif" font-size="11" lengthAdjust="spacingAndGlyphs" textLength="39" x="441" y="359.2104">move()</text><text fill="#000000" font-family="sans-serif" font-size="11" lengthAdjust="spacingAndGlyphs" textLength="36" x="441" y="372.0151">draw()</text><!--class Movable--><rect fill="#708090" filter="url(#fye0l68ak4g9b)" height="58.7422" id="Movable" style="stroke: #000000; stroke-width: 1.5;" width="98" x="428" y="8"/><ellipse cx="443" cy="26.9688" fill="#B4A7E5" rx="11" ry="11" style="stroke: #000000; stroke-width: 1.0;"/><path d="M438.9219,22.7344 L438.9219,20.5781 L446.3125,20.5781 L446.3125,22.7344 L443.8438,22.7344 L443.8438,30.8125 L446.3125,30.8125 L446.3125,32.9688 L438.9219,32.9688 L438.9219,30.8125 L441.3906,30.8125 L441.3906,22.7344 L438.9219,22.7344 Z "/><text fill="#000000" font-family="sans-serif" font-size="12" font-style="italic" lengthAdjust="spacingAndGlyphs" textLength="70" x="455" y="24.1387">«interface»</text><text fill="#000000" font-family="sans-serif" font-size="12" font-style="italic" lengthAdjust="spacingAndGlyphs" textLength="51" x="464.5" y="38.1074">Movable</text><line style="stroke: #000000; stroke-width: 1.5;" x1="429" x2="525" y1="45.9375" y2="45.9375"/><text fill="#000000" font-family="sans-serif" font-size="11" lengthAdjust="spacingAndGlyphs" textLength="39" x="434" y="60.1479">move()</text><!--class Drawable--><rect fill="#708090" filter="url(#fye0l68ak4g9b)" height="58.7422" id="Drawable" style="stroke: #000000; stroke-width: 1.5;" width="98" x="310" y="153.5"/><ellipse cx="325" cy="172.4688" fill="#B4A7E5" rx="11" ry="11" style="stroke: #000000; stroke-width: 1.0;"/><path d="M320.9219,168.2344 L320.9219,166.0781 L328.3125,166.0781 L328.3125,168.2344 L325.8438,168.2344 L325.8438,176.3125 L328.3125,176.3125 L328.3125,178.4688 L320.9219,178.4688 L320.9219,176.3125 L323.3906,176.3125 L323.3906,168.2344 L320.9219,168.2344 Z "/><text fill="#000000" font-family="sans-serif" font-size="12" font-style="italic" lengthAdjust="spacingAndGlyphs" textLength="70" x="337" y="169.6387">«interface»</text><text fill="#000000" font-family="sans-serif" font-size="12" font-style="italic" lengthAdjust="spacingAndGlyphs" textLength="59" x="342.5" y="183.6074">Drawable</text><line style="stroke: #000000; stroke-width: 1.5;" x1="311" x2="407" y1="191.4375" y2="191.4375"/><text fill="#000000" font-family="sans-serif" font-size="11" lengthAdjust="spacingAndGlyphs" textLength="36" x="316" y="205.6479">draw()</text><polygon fill="#FBFB77" filter="url(#fye0l68ak4g9b)" points="554.5,329.5,554.5,354.6328,631.5,354.6328,631.5,339.5,621.5,329.5,554.5,329.5" style="stroke: #A80036; stroke-width: 1.0;"/><line style="stroke: #A80036; stroke-width: 1.0;" x1="621.5" x2="621.5" y1="329.5" y2="339.5"/><line style="stroke: #A80036; stroke-width: 1.0;" x1="631.5" x2="621.5" y1="339.5" y2="339.5"/><text fill="#000000" font-family="sans-serif" font-size="13" lengthAdjust="spacingAndGlyphs" textLength="56" x="560.5" y="346.5669">Interface</text><!--link SpaceShip to StarFighter--><path d="M271.6206,254.1191 C285.0799,269.405 298.9072,285.1089 311.0823,298.9363 " fill="none" id="SpaceShip-StarFighter" style="stroke: #FFA500; stroke-width: 1.0;"/><polygon fill="none" points="266.3219,258.6939,258.3588,239.0575,276.8293,249.4421,266.3219,258.6939" style="stroke: #FFA500; stroke-width: 1.0;"/><!--link SpaceShip to CargoShuttle--><path d="M143.6957,254.1191 C129.6595,269.405 115.2396,285.1089 102.5428,298.9363 " fill="none" id="SpaceShip-CargoShuttle" style="stroke: #FFA500; stroke-width: 1.0;"/><polygon fill="none" points="138.8427,249.0545,157.5259,239.0575,149.1548,258.5235,138.8427,249.0545" style="stroke: #FFA500; stroke-width: 1.0;"/><!--link SpaceShip to WarpCruiser--><path d="M209,259.2427 C209,275.1152 209,291.1611 209,304.8439 " fill="none" id="SpaceShip-WarpCruiser" style="stroke: #FFA500; stroke-width: 1.0;"/><polygon fill="none" points="202.0001,259.0575,209,239.0575,216.0001,259.0574,202.0001,259.0575" style="stroke: #FFA500; stroke-width: 1.0;"/><!--link Movable to SpaceShip--><path d="M409.4377,67.3564 C373.8636,83.7793 329.8806,105.2069 292,127 C286.4251,130.2073 280.7279,133.6573 275.0602,137.2128 " fill="none" id="Movable-SpaceShip" style="stroke: #FFA500; stroke-width: 1.0; stroke-dasharray: 7.0,7.0;"/><polygon fill="none" points="406.618,60.9488,427.7191,59.0136,412.4304,73.6852,406.618,60.9488" style="stroke: #FFA500; stroke-width: 1.0;"/><!--link Movable to Asteroid--><path d="M477,87.319 C477,148.2355 477,249.9532 477,304.5873 " fill="none" id="Movable-Asteroid" style="stroke: #FFA500; stroke-width: 1.0; stroke-dasharray: 7.0,7.0;"/><polygon fill="none" points="470.0001,87.2512,477,67.2512,484.0001,87.2511,470.0001,87.2512" style="stroke: #FFA500; stroke-width: 1.0;"/><!--link Drawable to Asteroid--><path d="M392.8841,228.6574 C410.7935,252.7895 432.4991,282.0369 449.375,304.7765 " fill="none" id="Drawable-Asteroid" style="stroke: #FFA500; stroke-width: 1.0; stroke-dasharray: 7.0,7.0;"/><polygon fill="none" points="387.2163,232.7661,380.9184,212.534,398.4586,224.4228,387.2163,232.7661" style="stroke: #FFA500; stroke-width: 1.0;"/><!--link Drawable to StarFighter--><path d="M355.8723,232.7309 C354.5396,253.9202 352.9995,278.4073 351.7155,298.8232 " fill="none" id="Drawable-StarFighter" style="stroke: #FFA500; stroke-width: 1.0; stroke-dasharray: 7.0,7.0;"/><polygon fill="none" points="348.9008,232.0552,357.1425,212.534,362.8732,232.934,348.9008,232.0552" style="stroke: #FFA500; stroke-width: 1.0;"/><!--link Drawable to CargoShuttle--><path d="M312.2944,225.237 C305.7176,230.2178 298.8559,234.9575 292,239 C228.368,276.5201 203.5846,267.0113 137,299 C131.5088,301.6381 125.8783,304.5342 120.2941,307.5378 " fill="none" id="Drawable-CargoShuttle" style="stroke: #FFA500; stroke-width: 1.0; stroke-dasharray: 7.0,7.0;"/><polygon fill="none" points="307.9391,219.7566,327.8904,212.6187,316.745,230.6404,307.9391,219.7566" style="stroke: #FFA500; stroke-width: 1.0;"/><!--link Drawable to WarpCruiser--><path d="M317.2413,227.2642 C294.2295,251.6568 265.9835,281.5975 244.1165,304.7765 " fill="none" id="Drawable-WarpCruiser" style="stroke: #FFA500; stroke-width: 1.0; stroke-dasharray: 7.0,7.0;"/><polygon fill="none" points="312.3215,222.2784,331.1377,212.534,322.505,231.8855,312.3215,222.2784" style="stroke: #FFA500; stroke-width: 1.0;"/><!--link Movable to N1--><path d="M488.3338,67.2512 C513.0757,132.1987 571.0772,284.4527 588.1753,329.3353 " fill="none" id="Movable-N1" style="stroke: #FFA500; stroke-width: 1.0;"/><!--link Drawable to N1--><path d="M406.1482,212.698 C442.1378,235.6551 492.7334,268.5523 536,299 C549.9895,308.8448 565.4601,320.5709 576.7498,329.2894 " fill="none" id="Drawable-N1" style="stroke: #FFA500; stroke-width: 1.0;"/><!--
@startuml Interface
skinparam class {
    BackgroundColor SlateGrey
    ArrowColor Orange
    BorderColor Black
}
skinparam stereotypeCBackgroundColor CadetBlue
skinparam backgroundColor DarkSlateGrey

abstract class SpaceShip {
    shieldActive: bool
    shieldStrength: int
    position: coordinates
    setShield()
    move()
}
class StarFighter {
    move()
    draw()
    fireMissile()
}
class CargoShuttle {
    move()
    draw()
    dropCargo()
}
class WarpCruiser {
    move()
    draw()
}
class Asteroid {
    move()
    draw()
}
interface Movable <<interface>> {
    move()
}
interface Drawable <<interface>> {
    draw()
}
hide <<interface>> fields

StarFighter -u-|> SpaceShip
CargoShuttle -u-|> SpaceShip
WarpCruiser -u-|> SpaceShip
SpaceShip .u.|> Movable
Asteroid .u.|> Movable
Asteroid .u.|> Drawable
StarFighter .u.|> Drawable
CargoShuttle .u.|> Drawable
WarpCruiser .u.|> Drawable

note "Interface" as N1

Movable - - N1
Drawable - - N1

@enduml

PlantUML version 1.2017.15(Mon Jul 03 18:45:34 CEST 2017)
(GPL source distribution)
Java Runtime: OpenJDK Runtime Environment
JVM: OpenJDK 64-Bit Server VM
Java Version: 11.0.8+10-post-Ubuntu-0ubuntu118.04.1
Operating System: Linux
OS Version: 4.15.0-117-generic
Default Encoding: UTF-8
Language: en
Country: US
--></g></svg>